<?xml version="1.0" encoding="UTF-8" standalone="no"?>
<!DOCTYPE svg PUBLIC "-//W3C//DTD SVG 1.1//EN"
 "http://www.w3.org/Graphics/SVG/1.1/DTD/svg11.dtd">
<!-- Generated by graphviz version 10.0.1 (20240210.2158)
 -->
<!-- Title: model Pages: 1 -->
<svg width="298pt" height="1145pt"
 viewBox="0.00 0.00 297.60 1145.00" xmlns="http://www.w3.org/2000/svg" xmlns:xlink="http://www.w3.org/1999/xlink">
<g id="graph0" class="graph" transform="scale(0.766014 0.766014) rotate(0) translate(4 1490.75)">
<title>model</title>
<polygon fill="white" stroke="none" points="-4,4 -4,-1490.75 384.5,-1490.75 384.5,4 -4,4"/>
<g id="clust1" class="cluster">
<title>cluster_2</title>
<polygon fill="none" stroke="black" stroke-dasharray="5,2" points="85.38,-1042.5 85.38,-1364.75 257.38,-1364.75 257.38,-1042.5 85.38,-1042.5"/>
<text text-anchor="middle" x="116.62" y="-1349.35" font-family="Times New Roman,serif" font-size="12.00">Sequential</text>
</g>
<g id="clust2" class="cluster">
<title>cluster_3</title>
<polygon fill="none" stroke="black" stroke-dasharray="5,2" points="84.38,-480.25 84.38,-962.5 272.38,-962.5 272.38,-480.25 84.38,-480.25"/>
<text text-anchor="middle" x="115.62" y="-947.1" font-family="Times New Roman,serif" font-size="12.00">Sequential</text>
</g>
<g id="clust3" class="cluster">
<title>cluster_4</title>
<polygon fill="none" stroke="black" stroke-dasharray="5,2" points="98.38,-8 98.38,-320.25 270.38,-320.25 270.38,-8 98.38,-8"/>
<text text-anchor="middle" x="129.62" y="-304.85" font-family="Times New Roman,serif" font-size="12.00">Sequential</text>
</g>
<!-- 0 -->
<g id="node1" class="node">
<title>0</title>
<polygon fill="lightyellow" stroke="none" points="116.75,-1486.75 0,-1486.75 0,-1452.75 116.75,-1452.75 116.75,-1486.75"/>
<polygon fill="none" stroke="black" points="0,-1452.75 0,-1486.75 61.75,-1486.75 61.75,-1452.75 0,-1452.75"/>
<text text-anchor="start" x="5" y="-1472.25" font-family="Linux libertine" font-size="10.00">input&#45;tensor</text>
<text text-anchor="start" x="14.38" y="-1460.25" font-family="Linux libertine" font-size="10.00">depth:0</text>
<polygon fill="none" stroke="black" points="61.75,-1452.75 61.75,-1486.75 116.75,-1486.75 116.75,-1452.75 61.75,-1452.75"/>
<text text-anchor="start" x="66.75" y="-1466.25" font-family="Linux libertine" font-size="10.00">(128, 496)</text>
</g>
<!-- 3 -->
<g id="node4" class="node">
<title>3</title>
<polygon fill="aliceblue" stroke="none" points="266.38,-1416.75 66.38,-1416.75 66.38,-1372.75 266.38,-1372.75 266.38,-1416.75"/>
<polygon fill="none" stroke="black" points="66.38,-1372.75 66.38,-1416.75 109.38,-1416.75 109.38,-1372.75 66.38,-1372.75"/>
<text text-anchor="start" x="81.5" y="-1397.25" font-family="Linux libertine" font-size="10.00">cat</text>
<text text-anchor="start" x="71.38" y="-1385.25" font-family="Linux libertine" font-size="10.00">depth:1</text>
<polygon fill="none" stroke="black" points="109.38,-1394.75 109.38,-1416.75 152.38,-1416.75 152.38,-1394.75 109.38,-1394.75"/>
<text text-anchor="start" x="118.5" y="-1402.25" font-family="Linux libertine" font-size="10.00">input:</text>
<polygon fill="none" stroke="black" points="152.38,-1394.75 152.38,-1416.75 266.38,-1416.75 266.38,-1394.75 152.38,-1394.75"/>
<text text-anchor="start" x="157.25" y="-1402.25" font-family="Linux libertine" font-size="10.00">(128, 496), 2 x (128, 1) </text>
<polygon fill="none" stroke="black" points="109.38,-1372.75 109.38,-1394.75 152.38,-1394.75 152.38,-1372.75 109.38,-1372.75"/>
<text text-anchor="start" x="114" y="-1380.25" font-family="Linux libertine" font-size="10.00">output: </text>
<polygon fill="none" stroke="black" points="152.38,-1372.75 152.38,-1394.75 266.38,-1394.75 266.38,-1372.75 152.38,-1372.75"/>
<text text-anchor="start" x="185.38" y="-1380.25" font-family="Linux libertine" font-size="10.00">(128, 498) </text>
</g>
<!-- 0&#45;&gt;3 -->
<g id="edge1" class="edge">
<title>0&#45;&gt;3</title>
<path fill="none" stroke="black" d="M81.81,-1452.91C94.74,-1444.17 111.15,-1433.08 126.06,-1423"/>
<polygon fill="black" stroke="black" points="128.02,-1425.9 134.35,-1417.4 124.1,-1420.1 128.02,-1425.9"/>
</g>
<!-- 16 -->
<g id="node17" class="node">
<title>16</title>
<polygon fill="aliceblue" stroke="none" points="292.38,-372.25 76.38,-372.25 76.38,-328.25 292.38,-328.25 292.38,-372.25"/>
<polygon fill="none" stroke="black" points="76.38,-328.25 76.38,-372.25 119.38,-372.25 119.38,-328.25 76.38,-328.25"/>
<text text-anchor="start" x="91.5" y="-352.75" font-family="Linux libertine" font-size="10.00">cat</text>
<text text-anchor="start" x="81.38" y="-340.75" font-family="Linux libertine" font-size="10.00">depth:1</text>
<polygon fill="none" stroke="black" points="119.38,-350.25 119.38,-372.25 162.38,-372.25 162.38,-350.25 119.38,-350.25"/>
<text text-anchor="start" x="128.5" y="-357.75" font-family="Linux libertine" font-size="10.00">input:</text>
<polygon fill="none" stroke="black" points="162.38,-350.25 162.38,-372.25 292.38,-372.25 292.38,-350.25 162.38,-350.25"/>
<text text-anchor="start" x="167.38" y="-357.75" font-family="Linux libertine" font-size="10.00">2 x (128, 496), 2 x (128, 1) </text>
<polygon fill="none" stroke="black" points="119.38,-328.25 119.38,-350.25 162.38,-350.25 162.38,-328.25 119.38,-328.25"/>
<text text-anchor="start" x="124" y="-335.75" font-family="Linux libertine" font-size="10.00">output: </text>
<polygon fill="none" stroke="black" points="162.38,-328.25 162.38,-350.25 292.38,-350.25 292.38,-328.25 162.38,-328.25"/>
<text text-anchor="start" x="203.38" y="-335.75" font-family="Linux libertine" font-size="10.00">(128, 994) </text>
</g>
<!-- 0&#45;&gt;16 -->
<g id="edge2" class="edge">
<title>0&#45;&gt;16</title>
<path fill="none" stroke="black" d="M54.98,-1452.97C49.28,-1425.01 38.38,-1364.86 38.38,-1313.5 38.38,-1313.5 38.38,-1313.5 38.38,-509.25 38.38,-458.14 58.35,-445.48 93.38,-408.25 104.27,-396.67 118.01,-386.48 131.48,-378.04"/>
<polygon fill="black" stroke="black" points="133.13,-381.13 139.91,-372.98 129.53,-375.12 133.13,-381.13"/>
</g>
<!-- 1 -->
<g id="node2" class="node">
<title>1</title>
<polygon fill="lightyellow" stroke="none" points="251.5,-1486.75 145.25,-1486.75 145.25,-1452.75 251.5,-1452.75 251.5,-1486.75"/>
<polygon fill="none" stroke="black" points="145.25,-1452.75 145.25,-1486.75 207,-1486.75 207,-1452.75 145.25,-1452.75"/>
<text text-anchor="start" x="150.25" y="-1472.25" font-family="Linux libertine" font-size="10.00">input&#45;tensor</text>
<text text-anchor="start" x="159.62" y="-1460.25" font-family="Linux libertine" font-size="10.00">depth:0</text>
<polygon fill="none" stroke="black" points="207,-1452.75 207,-1486.75 251.5,-1486.75 251.5,-1452.75 207,-1452.75"/>
<text text-anchor="start" x="212" y="-1466.25" font-family="Linux libertine" font-size="10.00">(128, 1)</text>
</g>
<!-- 1&#45;&gt;3 -->
<g id="edge3" class="edge">
<title>1&#45;&gt;3</title>
<path fill="none" stroke="black" d="M191.43,-1452.91C188.11,-1445.34 184.02,-1436 180.11,-1427.08"/>
<polygon fill="black" stroke="black" points="183.32,-1425.69 176.1,-1417.94 176.91,-1428.5 183.32,-1425.69"/>
</g>
<!-- 1&#45;&gt;16 -->
<g id="edge4" class="edge">
<title>1&#45;&gt;16</title>
<path fill="none" stroke="black" d="M233.48,-1452.93C248.65,-1444.34 265.22,-1432.27 275.38,-1416.75 300.92,-1377.71 294.38,-1360.16 294.38,-1313.5 294.38,-1313.5 294.38,-1313.5 294.38,-509.25 294.38,-462.9 295.05,-446.16 268.38,-408.25 260.13,-396.54 248.66,-386.52 236.83,-378.29"/>
<polygon fill="black" stroke="black" points="238.88,-375.45 228.59,-372.91 235.05,-381.31 238.88,-375.45"/>
</g>
<!-- 2 -->
<g id="node3" class="node">
<title>2</title>
<polygon fill="lightyellow" stroke="none" points="380.5,-1486.75 274.25,-1486.75 274.25,-1452.75 380.5,-1452.75 380.5,-1486.75"/>
<polygon fill="none" stroke="black" points="274.25,-1452.75 274.25,-1486.75 336,-1486.75 336,-1452.75 274.25,-1452.75"/>
<text text-anchor="start" x="279.25" y="-1472.25" font-family="Linux libertine" font-size="10.00">input&#45;tensor</text>
<text text-anchor="start" x="288.62" y="-1460.25" font-family="Linux libertine" font-size="10.00">depth:0</text>
<polygon fill="none" stroke="black" points="336,-1452.75 336,-1486.75 380.5,-1486.75 380.5,-1452.75 336,-1452.75"/>
<text text-anchor="start" x="341" y="-1466.25" font-family="Linux libertine" font-size="10.00">(128, 1)</text>
</g>
<!-- 2&#45;&gt;3 -->
<g id="edge5" class="edge">
<title>2&#45;&gt;3</title>
<path fill="none" stroke="black" d="M292.44,-1452.91C272.15,-1443.71 246.1,-1431.9 222.95,-1421.4"/>
<polygon fill="black" stroke="black" points="224.48,-1418.25 213.93,-1417.31 221.59,-1424.63 224.48,-1418.25"/>
</g>
<!-- 2&#45;&gt;16 -->
<g id="edge6" class="edge">
<title>2&#45;&gt;16</title>
<path fill="none" stroke="black" d="M328.22,-1452.89C329.65,-1424.8 332.38,-1364.47 332.38,-1313.5 332.38,-1313.5 332.38,-1313.5 332.38,-509.25 332.38,-461.13 325.42,-444.15 293.38,-408.25 282.12,-395.64 267.4,-385.38 252.44,-377.22"/>
<polygon fill="black" stroke="black" points="254.44,-374.31 243.95,-372.85 251.24,-380.54 254.44,-374.31"/>
</g>
<!-- 4 -->
<g id="node5" class="node">
<title>4</title>
<polygon fill="#c1ffc1" stroke="none" points="242.38,-1334.5 98.38,-1334.5 98.38,-1290.5 242.38,-1290.5 242.38,-1334.5"/>
<polygon fill="none" stroke="black" points="98.38,-1290.5 98.38,-1334.5 141.38,-1334.5 141.38,-1290.5 98.38,-1290.5"/>
<text text-anchor="start" x="106.75" y="-1315" font-family="Linux libertine" font-size="10.00">Linear</text>
<text text-anchor="start" x="103.38" y="-1303" font-family="Linux libertine" font-size="10.00">depth:2</text>
<polygon fill="none" stroke="black" points="141.38,-1312.5 141.38,-1334.5 184.38,-1334.5 184.38,-1312.5 141.38,-1312.5"/>
<text text-anchor="start" x="150.5" y="-1320" font-family="Linux libertine" font-size="10.00">input:</text>
<polygon fill="none" stroke="black" points="184.38,-1312.5 184.38,-1334.5 242.38,-1334.5 242.38,-1312.5 184.38,-1312.5"/>
<text text-anchor="start" x="189.38" y="-1320" font-family="Linux libertine" font-size="10.00">(128, 498) </text>
<polygon fill="none" stroke="black" points="141.38,-1290.5 141.38,-1312.5 184.38,-1312.5 184.38,-1290.5 141.38,-1290.5"/>
<text text-anchor="start" x="146" y="-1298" font-family="Linux libertine" font-size="10.00">output: </text>
<polygon fill="none" stroke="black" points="184.38,-1290.5 184.38,-1312.5 242.38,-1312.5 242.38,-1290.5 184.38,-1290.5"/>
<text text-anchor="start" x="189.38" y="-1298" font-family="Linux libertine" font-size="10.00">(128, 498) </text>
</g>
<!-- 3&#45;&gt;4 -->
<g id="edge7" class="edge">
<title>3&#45;&gt;4</title>
<path fill="none" stroke="black" d="M167.41,-1373.08C167.82,-1364.72 168.31,-1354.88 168.77,-1345.62"/>
<polygon fill="black" stroke="black" points="172.26,-1346.05 169.26,-1335.89 165.27,-1345.7 172.26,-1346.05"/>
</g>
<!-- 5 -->
<g id="node6" class="node">
<title>5</title>
<polygon fill="#c1ffc1" stroke="none" points="249.38,-1254.5 93.38,-1254.5 93.38,-1210.5 249.38,-1210.5 249.38,-1254.5"/>
<polygon fill="none" stroke="black" points="93.38,-1210.5 93.38,-1254.5 148.38,-1254.5 148.38,-1210.5 93.38,-1210.5"/>
<text text-anchor="start" x="98" y="-1235" font-family="Linux libertine" font-size="10.00">LeakyReLU</text>
<text text-anchor="start" x="104.38" y="-1223" font-family="Linux libertine" font-size="10.00">depth:2</text>
<polygon fill="none" stroke="black" points="148.38,-1232.5 148.38,-1254.5 191.38,-1254.5 191.38,-1232.5 148.38,-1232.5"/>
<text text-anchor="start" x="157.5" y="-1240" font-family="Linux libertine" font-size="10.00">input:</text>
<polygon fill="none" stroke="black" points="191.38,-1232.5 191.38,-1254.5 249.38,-1254.5 249.38,-1232.5 191.38,-1232.5"/>
<text text-anchor="start" x="196.38" y="-1240" font-family="Linux libertine" font-size="10.00">(128, 498) </text>
<polygon fill="none" stroke="black" points="148.38,-1210.5 148.38,-1232.5 191.38,-1232.5 191.38,-1210.5 148.38,-1210.5"/>
<text text-anchor="start" x="153" y="-1218" font-family="Linux libertine" font-size="10.00">output: </text>
<polygon fill="none" stroke="black" points="191.38,-1210.5 191.38,-1232.5 249.38,-1232.5 249.38,-1210.5 191.38,-1210.5"/>
<text text-anchor="start" x="196.38" y="-1218" font-family="Linux libertine" font-size="10.00">(128, 498) </text>
</g>
<!-- 4&#45;&gt;5 -->
<g id="edge8" class="edge">
<title>4&#45;&gt;5</title>
<path fill="none" stroke="black" d="M170.64,-1290.6C170.74,-1282.99 170.85,-1274.2 170.96,-1265.84"/>
<polygon fill="black" stroke="black" points="174.46,-1266.02 171.09,-1255.97 167.46,-1265.93 174.46,-1266.02"/>
</g>
<!-- 6 -->
<g id="node7" class="node">
<title>6</title>
<polygon fill="#c1ffc1" stroke="none" points="243.38,-1174.5 99.38,-1174.5 99.38,-1130.5 243.38,-1130.5 243.38,-1174.5"/>
<polygon fill="none" stroke="black" points="99.38,-1130.5 99.38,-1174.5 142.38,-1174.5 142.38,-1130.5 99.38,-1130.5"/>
<text text-anchor="start" x="107.75" y="-1155" font-family="Linux libertine" font-size="10.00">Linear</text>
<text text-anchor="start" x="104.38" y="-1143" font-family="Linux libertine" font-size="10.00">depth:2</text>
<polygon fill="none" stroke="black" points="142.38,-1152.5 142.38,-1174.5 185.38,-1174.5 185.38,-1152.5 142.38,-1152.5"/>
<text text-anchor="start" x="151.5" y="-1160" font-family="Linux libertine" font-size="10.00">input:</text>
<polygon fill="none" stroke="black" points="185.38,-1152.5 185.38,-1174.5 243.38,-1174.5 243.38,-1152.5 185.38,-1152.5"/>
<text text-anchor="start" x="190.38" y="-1160" font-family="Linux libertine" font-size="10.00">(128, 498) </text>
<polygon fill="none" stroke="black" points="142.38,-1130.5 142.38,-1152.5 185.38,-1152.5 185.38,-1130.5 142.38,-1130.5"/>
<text text-anchor="start" x="147" y="-1138" font-family="Linux libertine" font-size="10.00">output: </text>
<polygon fill="none" stroke="black" points="185.38,-1130.5 185.38,-1152.5 243.38,-1152.5 243.38,-1130.5 185.38,-1130.5"/>
<text text-anchor="start" x="190.38" y="-1138" font-family="Linux libertine" font-size="10.00">(128, 496) </text>
</g>
<!-- 5&#45;&gt;6 -->
<g id="edge9" class="edge">
<title>5&#45;&gt;6</title>
<path fill="none" stroke="black" d="M171.38,-1210.6C171.38,-1202.99 171.38,-1194.2 171.38,-1185.84"/>
<polygon fill="black" stroke="black" points="174.88,-1185.97 171.38,-1175.97 167.88,-1185.97 174.88,-1185.97"/>
</g>
<!-- 7 -->
<g id="node8" class="node">
<title>7</title>
<polygon fill="#c1ffc1" stroke="none" points="249.38,-1094.5 93.38,-1094.5 93.38,-1050.5 249.38,-1050.5 249.38,-1094.5"/>
<polygon fill="none" stroke="black" points="93.38,-1050.5 93.38,-1094.5 148.38,-1094.5 148.38,-1050.5 93.38,-1050.5"/>
<text text-anchor="start" x="98" y="-1075" font-family="Linux libertine" font-size="10.00">LeakyReLU</text>
<text text-anchor="start" x="104.38" y="-1063" font-family="Linux libertine" font-size="10.00">depth:2</text>
<polygon fill="none" stroke="black" points="148.38,-1072.5 148.38,-1094.5 191.38,-1094.5 191.38,-1072.5 148.38,-1072.5"/>
<text text-anchor="start" x="157.5" y="-1080" font-family="Linux libertine" font-size="10.00">input:</text>
<polygon fill="none" stroke="black" points="191.38,-1072.5 191.38,-1094.5 249.38,-1094.5 249.38,-1072.5 191.38,-1072.5"/>
<text text-anchor="start" x="196.38" y="-1080" font-family="Linux libertine" font-size="10.00">(128, 496) </text>
<polygon fill="none" stroke="black" points="148.38,-1050.5 148.38,-1072.5 191.38,-1072.5 191.38,-1050.5 148.38,-1050.5"/>
<text text-anchor="start" x="153" y="-1058" font-family="Linux libertine" font-size="10.00">output: </text>
<polygon fill="none" stroke="black" points="191.38,-1050.5 191.38,-1072.5 249.38,-1072.5 249.38,-1050.5 191.38,-1050.5"/>
<text text-anchor="start" x="196.38" y="-1058" font-family="Linux libertine" font-size="10.00">(128, 496) </text>
</g>
<!-- 6&#45;&gt;7 -->
<g id="edge10" class="edge">
<title>6&#45;&gt;7</title>
<path fill="none" stroke="black" d="M171.38,-1130.6C171.38,-1122.99 171.38,-1114.2 171.38,-1105.84"/>
<polygon fill="black" stroke="black" points="174.88,-1105.97 171.38,-1095.97 167.88,-1105.97 174.88,-1105.97"/>
</g>
<!-- 8 -->
<g id="node9" class="node">
<title>8</title>
<polygon fill="aliceblue" stroke="none" points="258.88,-1014.5 91.88,-1014.5 91.88,-970.5 258.88,-970.5 258.88,-1014.5"/>
<polygon fill="none" stroke="black" points="91.88,-970.5 91.88,-1014.5 146.88,-1014.5 146.88,-970.5 91.88,-970.5"/>
<text text-anchor="start" x="96.5" y="-995" font-family="Linux libertine" font-size="10.00">unsqueeze</text>
<text text-anchor="start" x="102.88" y="-983" font-family="Linux libertine" font-size="10.00">depth:1</text>
<polygon fill="none" stroke="black" points="146.88,-992.5 146.88,-1014.5 189.88,-1014.5 189.88,-992.5 146.88,-992.5"/>
<text text-anchor="start" x="156" y="-1000" font-family="Linux libertine" font-size="10.00">input:</text>
<polygon fill="none" stroke="black" points="189.88,-992.5 189.88,-1014.5 258.88,-1014.5 258.88,-992.5 189.88,-992.5"/>
<text text-anchor="start" x="200.38" y="-1000" font-family="Linux libertine" font-size="10.00">(128, 496) </text>
<polygon fill="none" stroke="black" points="146.88,-970.5 146.88,-992.5 189.88,-992.5 189.88,-970.5 146.88,-970.5"/>
<text text-anchor="start" x="151.5" y="-978" font-family="Linux libertine" font-size="10.00">output: </text>
<polygon fill="none" stroke="black" points="189.88,-970.5 189.88,-992.5 258.88,-992.5 258.88,-970.5 189.88,-970.5"/>
<text text-anchor="start" x="194.75" y="-978" font-family="Linux libertine" font-size="10.00">(128, 1, 496) </text>
</g>
<!-- 7&#45;&gt;8 -->
<g id="edge11" class="edge">
<title>7&#45;&gt;8</title>
<path fill="none" stroke="black" d="M172.45,-1050.6C172.84,-1042.99 173.29,-1034.2 173.72,-1025.84"/>
<polygon fill="black" stroke="black" points="177.21,-1026.14 174.22,-1015.97 170.21,-1025.78 177.21,-1026.14"/>
</g>
<!-- 9 -->
<g id="node10" class="node">
<title>9</title>
<polygon fill="#c1ffc1" stroke="none" points="256.38,-932.25 96.38,-932.25 96.38,-888.25 256.38,-888.25 256.38,-932.25"/>
<polygon fill="none" stroke="black" points="96.38,-888.25 96.38,-932.25 139.38,-932.25 139.38,-888.25 96.38,-888.25"/>
<text text-anchor="start" x="102.12" y="-912.75" font-family="Linux libertine" font-size="10.00">Conv1d</text>
<text text-anchor="start" x="101.38" y="-900.75" font-family="Linux libertine" font-size="10.00">depth:2</text>
<polygon fill="none" stroke="black" points="139.38,-910.25 139.38,-932.25 182.38,-932.25 182.38,-910.25 139.38,-910.25"/>
<text text-anchor="start" x="148.5" y="-917.75" font-family="Linux libertine" font-size="10.00">input:</text>
<polygon fill="none" stroke="black" points="182.38,-910.25 182.38,-932.25 256.38,-932.25 256.38,-910.25 182.38,-910.25"/>
<text text-anchor="start" x="189.75" y="-917.75" font-family="Linux libertine" font-size="10.00">(128, 1, 496) </text>
<polygon fill="none" stroke="black" points="139.38,-888.25 139.38,-910.25 182.38,-910.25 182.38,-888.25 139.38,-888.25"/>
<text text-anchor="start" x="144" y="-895.75" font-family="Linux libertine" font-size="10.00">output: </text>
<polygon fill="none" stroke="black" points="182.38,-888.25 182.38,-910.25 256.38,-910.25 256.38,-888.25 182.38,-888.25"/>
<text text-anchor="start" x="187.12" y="-895.75" font-family="Linux libertine" font-size="10.00">(128, 50, 496) </text>
</g>
<!-- 8&#45;&gt;9 -->
<g id="edge12" class="edge">
<title>8&#45;&gt;9</title>
<path fill="none" stroke="black" d="M175.63,-970.83C175.74,-962.47 175.86,-952.63 175.97,-943.37"/>
<polygon fill="black" stroke="black" points="179.47,-943.68 176.1,-933.64 172.47,-943.59 179.47,-943.68"/>
</g>
<!-- 10 -->
<g id="node11" class="node">
<title>10</title>
<polygon fill="#c1ffc1" stroke="none" points="264.38,-852.25 92.38,-852.25 92.38,-808.25 264.38,-808.25 264.38,-852.25"/>
<polygon fill="none" stroke="black" points="92.38,-808.25 92.38,-852.25 147.38,-852.25 147.38,-808.25 92.38,-808.25"/>
<text text-anchor="start" x="97" y="-832.75" font-family="Linux libertine" font-size="10.00">LeakyReLU</text>
<text text-anchor="start" x="103.38" y="-820.75" font-family="Linux libertine" font-size="10.00">depth:2</text>
<polygon fill="none" stroke="black" points="147.38,-830.25 147.38,-852.25 190.38,-852.25 190.38,-830.25 147.38,-830.25"/>
<text text-anchor="start" x="156.5" y="-837.75" font-family="Linux libertine" font-size="10.00">input:</text>
<polygon fill="none" stroke="black" points="190.38,-830.25 190.38,-852.25 264.38,-852.25 264.38,-830.25 190.38,-830.25"/>
<text text-anchor="start" x="195.12" y="-837.75" font-family="Linux libertine" font-size="10.00">(128, 50, 496) </text>
<polygon fill="none" stroke="black" points="147.38,-808.25 147.38,-830.25 190.38,-830.25 190.38,-808.25 147.38,-808.25"/>
<text text-anchor="start" x="152" y="-815.75" font-family="Linux libertine" font-size="10.00">output: </text>
<polygon fill="none" stroke="black" points="190.38,-808.25 190.38,-830.25 264.38,-830.25 264.38,-808.25 190.38,-808.25"/>
<text text-anchor="start" x="195.12" y="-815.75" font-family="Linux libertine" font-size="10.00">(128, 50, 496) </text>
</g>
<!-- 9&#45;&gt;10 -->
<g id="edge13" class="edge">
<title>9&#45;&gt;10</title>
<path fill="none" stroke="black" d="M176.91,-888.35C177.11,-880.74 177.33,-871.95 177.55,-863.59"/>
<polygon fill="black" stroke="black" points="181.04,-863.81 177.8,-853.72 174.04,-863.63 181.04,-863.81"/>
</g>
<!-- 11 -->
<g id="node12" class="node">
<title>11</title>
<polygon fill="#c1ffc1" stroke="none" points="258.38,-772.25 98.38,-772.25 98.38,-728.25 258.38,-728.25 258.38,-772.25"/>
<polygon fill="none" stroke="black" points="98.38,-728.25 98.38,-772.25 141.38,-772.25 141.38,-728.25 98.38,-728.25"/>
<text text-anchor="start" x="104.12" y="-752.75" font-family="Linux libertine" font-size="10.00">Conv1d</text>
<text text-anchor="start" x="103.38" y="-740.75" font-family="Linux libertine" font-size="10.00">depth:2</text>
<polygon fill="none" stroke="black" points="141.38,-750.25 141.38,-772.25 184.38,-772.25 184.38,-750.25 141.38,-750.25"/>
<text text-anchor="start" x="150.5" y="-757.75" font-family="Linux libertine" font-size="10.00">input:</text>
<polygon fill="none" stroke="black" points="184.38,-750.25 184.38,-772.25 258.38,-772.25 258.38,-750.25 184.38,-750.25"/>
<text text-anchor="start" x="189.12" y="-757.75" font-family="Linux libertine" font-size="10.00">(128, 50, 496) </text>
<polygon fill="none" stroke="black" points="141.38,-728.25 141.38,-750.25 184.38,-750.25 184.38,-728.25 141.38,-728.25"/>
<text text-anchor="start" x="146" y="-735.75" font-family="Linux libertine" font-size="10.00">output: </text>
<polygon fill="none" stroke="black" points="184.38,-728.25 184.38,-750.25 258.38,-750.25 258.38,-728.25 184.38,-728.25"/>
<text text-anchor="start" x="189.12" y="-735.75" font-family="Linux libertine" font-size="10.00">(128, 25, 496) </text>
</g>
<!-- 10&#45;&gt;11 -->
<g id="edge14" class="edge">
<title>10&#45;&gt;11</title>
<path fill="none" stroke="black" d="M178.38,-808.35C178.38,-800.74 178.38,-791.95 178.38,-783.59"/>
<polygon fill="black" stroke="black" points="181.88,-783.72 178.38,-773.72 174.88,-783.72 181.88,-783.72"/>
</g>
<!-- 12 -->
<g id="node13" class="node">
<title>12</title>
<polygon fill="#c1ffc1" stroke="none" points="264.38,-692.25 92.38,-692.25 92.38,-648.25 264.38,-648.25 264.38,-692.25"/>
<polygon fill="none" stroke="black" points="92.38,-648.25 92.38,-692.25 147.38,-692.25 147.38,-648.25 92.38,-648.25"/>
<text text-anchor="start" x="97" y="-672.75" font-family="Linux libertine" font-size="10.00">LeakyReLU</text>
<text text-anchor="start" x="103.38" y="-660.75" font-family="Linux libertine" font-size="10.00">depth:2</text>
<polygon fill="none" stroke="black" points="147.38,-670.25 147.38,-692.25 190.38,-692.25 190.38,-670.25 147.38,-670.25"/>
<text text-anchor="start" x="156.5" y="-677.75" font-family="Linux libertine" font-size="10.00">input:</text>
<polygon fill="none" stroke="black" points="190.38,-670.25 190.38,-692.25 264.38,-692.25 264.38,-670.25 190.38,-670.25"/>
<text text-anchor="start" x="195.12" y="-677.75" font-family="Linux libertine" font-size="10.00">(128, 25, 496) </text>
<polygon fill="none" stroke="black" points="147.38,-648.25 147.38,-670.25 190.38,-670.25 190.38,-648.25 147.38,-648.25"/>
<text text-anchor="start" x="152" y="-655.75" font-family="Linux libertine" font-size="10.00">output: </text>
<polygon fill="none" stroke="black" points="190.38,-648.25 190.38,-670.25 264.38,-670.25 264.38,-648.25 190.38,-648.25"/>
<text text-anchor="start" x="195.12" y="-655.75" font-family="Linux libertine" font-size="10.00">(128, 25, 496) </text>
</g>
<!-- 11&#45;&gt;12 -->
<g id="edge15" class="edge">
<title>11&#45;&gt;12</title>
<path fill="none" stroke="black" d="M178.38,-728.35C178.38,-720.74 178.38,-711.95 178.38,-703.59"/>
<polygon fill="black" stroke="black" points="181.88,-703.72 178.38,-693.72 174.88,-703.72 181.88,-703.72"/>
</g>
<!-- 13 -->
<g id="node14" class="node">
<title>13</title>
<polygon fill="#c1ffc1" stroke="none" points="258.38,-612.25 98.38,-612.25 98.38,-568.25 258.38,-568.25 258.38,-612.25"/>
<polygon fill="none" stroke="black" points="98.38,-568.25 98.38,-612.25 141.38,-612.25 141.38,-568.25 98.38,-568.25"/>
<text text-anchor="start" x="104.12" y="-592.75" font-family="Linux libertine" font-size="10.00">Conv1d</text>
<text text-anchor="start" x="103.38" y="-580.75" font-family="Linux libertine" font-size="10.00">depth:2</text>
<polygon fill="none" stroke="black" points="141.38,-590.25 141.38,-612.25 184.38,-612.25 184.38,-590.25 141.38,-590.25"/>
<text text-anchor="start" x="150.5" y="-597.75" font-family="Linux libertine" font-size="10.00">input:</text>
<polygon fill="none" stroke="black" points="184.38,-590.25 184.38,-612.25 258.38,-612.25 258.38,-590.25 184.38,-590.25"/>
<text text-anchor="start" x="189.12" y="-597.75" font-family="Linux libertine" font-size="10.00">(128, 25, 496) </text>
<polygon fill="none" stroke="black" points="141.38,-568.25 141.38,-590.25 184.38,-590.25 184.38,-568.25 141.38,-568.25"/>
<text text-anchor="start" x="146" y="-575.75" font-family="Linux libertine" font-size="10.00">output: </text>
<polygon fill="none" stroke="black" points="184.38,-568.25 184.38,-590.25 258.38,-590.25 258.38,-568.25 184.38,-568.25"/>
<text text-anchor="start" x="191.75" y="-575.75" font-family="Linux libertine" font-size="10.00">(128, 1, 496) </text>
</g>
<!-- 12&#45;&gt;13 -->
<g id="edge16" class="edge">
<title>12&#45;&gt;13</title>
<path fill="none" stroke="black" d="M178.38,-648.35C178.38,-640.74 178.38,-631.95 178.38,-623.59"/>
<polygon fill="black" stroke="black" points="181.88,-623.72 178.38,-613.72 174.88,-623.72 181.88,-623.72"/>
</g>
<!-- 14 -->
<g id="node15" class="node">
<title>14</title>
<polygon fill="#c1ffc1" stroke="none" points="262.88,-532.25 95.88,-532.25 95.88,-488.25 262.88,-488.25 262.88,-532.25"/>
<polygon fill="none" stroke="black" points="95.88,-488.25 95.88,-532.25 150.88,-532.25 150.88,-488.25 95.88,-488.25"/>
<text text-anchor="start" x="100.5" y="-512.75" font-family="Linux libertine" font-size="10.00">LeakyReLU</text>
<text text-anchor="start" x="106.88" y="-500.75" font-family="Linux libertine" font-size="10.00">depth:2</text>
<polygon fill="none" stroke="black" points="150.88,-510.25 150.88,-532.25 193.88,-532.25 193.88,-510.25 150.88,-510.25"/>
<text text-anchor="start" x="160" y="-517.75" font-family="Linux libertine" font-size="10.00">input:</text>
<polygon fill="none" stroke="black" points="193.88,-510.25 193.88,-532.25 262.88,-532.25 262.88,-510.25 193.88,-510.25"/>
<text text-anchor="start" x="198.75" y="-517.75" font-family="Linux libertine" font-size="10.00">(128, 1, 496) </text>
<polygon fill="none" stroke="black" points="150.88,-488.25 150.88,-510.25 193.88,-510.25 193.88,-488.25 150.88,-488.25"/>
<text text-anchor="start" x="155.5" y="-495.75" font-family="Linux libertine" font-size="10.00">output: </text>
<polygon fill="none" stroke="black" points="193.88,-488.25 193.88,-510.25 262.88,-510.25 262.88,-488.25 193.88,-488.25"/>
<text text-anchor="start" x="198.75" y="-495.75" font-family="Linux libertine" font-size="10.00">(128, 1, 496) </text>
</g>
<!-- 13&#45;&gt;14 -->
<g id="edge17" class="edge">
<title>13&#45;&gt;14</title>
<path fill="none" stroke="black" d="M178.64,-568.35C178.74,-560.74 178.85,-551.95 178.96,-543.59"/>
<polygon fill="black" stroke="black" points="182.46,-543.77 179.09,-533.72 175.46,-543.68 182.46,-543.77"/>
</g>
<!-- 15 -->
<g id="node16" class="node">
<title>15</title>
<polygon fill="aliceblue" stroke="none" points="258.88,-452.25 101.88,-452.25 101.88,-408.25 258.88,-408.25 258.88,-452.25"/>
<polygon fill="none" stroke="black" points="101.88,-408.25 101.88,-452.25 146.88,-452.25 146.88,-408.25 101.88,-408.25"/>
<text text-anchor="start" x="106.75" y="-432.75" font-family="Linux libertine" font-size="10.00">squeeze</text>
<text text-anchor="start" x="107.88" y="-420.75" font-family="Linux libertine" font-size="10.00">depth:1</text>
<polygon fill="none" stroke="black" points="146.88,-430.25 146.88,-452.25 189.88,-452.25 189.88,-430.25 146.88,-430.25"/>
<text text-anchor="start" x="156" y="-437.75" font-family="Linux libertine" font-size="10.00">input:</text>
<polygon fill="none" stroke="black" points="189.88,-430.25 189.88,-452.25 258.88,-452.25 258.88,-430.25 189.88,-430.25"/>
<text text-anchor="start" x="194.75" y="-437.75" font-family="Linux libertine" font-size="10.00">(128, 1, 496) </text>
<polygon fill="none" stroke="black" points="146.88,-408.25 146.88,-430.25 189.88,-430.25 189.88,-408.25 146.88,-408.25"/>
<text text-anchor="start" x="151.5" y="-415.75" font-family="Linux libertine" font-size="10.00">output: </text>
<polygon fill="none" stroke="black" points="189.88,-408.25 189.88,-430.25 258.88,-430.25 258.88,-408.25 189.88,-408.25"/>
<text text-anchor="start" x="200.38" y="-415.75" font-family="Linux libertine" font-size="10.00">(128, 496) </text>
</g>
<!-- 14&#45;&gt;15 -->
<g id="edge18" class="edge">
<title>14&#45;&gt;15</title>
<path fill="none" stroke="black" d="M179.64,-488.35C179.74,-480.74 179.85,-471.95 179.96,-463.59"/>
<polygon fill="black" stroke="black" points="183.46,-463.77 180.09,-453.72 176.46,-463.68 183.46,-463.77"/>
</g>
<!-- 15&#45;&gt;16 -->
<g id="edge19" class="edge">
<title>15&#45;&gt;16</title>
<path fill="none" stroke="black" d="M181.45,-408.35C181.84,-400.74 182.29,-391.95 182.72,-383.59"/>
<polygon fill="black" stroke="black" points="186.21,-383.89 183.22,-373.72 179.21,-383.53 186.21,-383.89"/>
</g>
<!-- 17 -->
<g id="node18" class="node">
<title>17</title>
<polygon fill="#c1ffc1" stroke="none" points="256.38,-290 112.38,-290 112.38,-246 256.38,-246 256.38,-290"/>
<polygon fill="none" stroke="black" points="112.38,-246 112.38,-290 155.38,-290 155.38,-246 112.38,-246"/>
<text text-anchor="start" x="120.75" y="-270.5" font-family="Linux libertine" font-size="10.00">Linear</text>
<text text-anchor="start" x="117.38" y="-258.5" font-family="Linux libertine" font-size="10.00">depth:2</text>
<polygon fill="none" stroke="black" points="155.38,-268 155.38,-290 198.38,-290 198.38,-268 155.38,-268"/>
<text text-anchor="start" x="164.5" y="-275.5" font-family="Linux libertine" font-size="10.00">input:</text>
<polygon fill="none" stroke="black" points="198.38,-268 198.38,-290 256.38,-290 256.38,-268 198.38,-268"/>
<text text-anchor="start" x="203.38" y="-275.5" font-family="Linux libertine" font-size="10.00">(128, 994) </text>
<polygon fill="none" stroke="black" points="155.38,-246 155.38,-268 198.38,-268 198.38,-246 155.38,-246"/>
<text text-anchor="start" x="160" y="-253.5" font-family="Linux libertine" font-size="10.00">output: </text>
<polygon fill="none" stroke="black" points="198.38,-246 198.38,-268 256.38,-268 256.38,-246 198.38,-246"/>
<text text-anchor="start" x="203.38" y="-253.5" font-family="Linux libertine" font-size="10.00">(128, 498) </text>
</g>
<!-- 16&#45;&gt;17 -->
<g id="edge20" class="edge">
<title>16&#45;&gt;17</title>
<path fill="none" stroke="black" d="M184.38,-328.58C184.38,-320.22 184.38,-310.38 184.38,-301.12"/>
<polygon fill="black" stroke="black" points="187.88,-301.39 184.38,-291.39 180.88,-301.39 187.88,-301.39"/>
</g>
<!-- 18 -->
<g id="node19" class="node">
<title>18</title>
<polygon fill="#c1ffc1" stroke="none" points="262.38,-210 106.38,-210 106.38,-166 262.38,-166 262.38,-210"/>
<polygon fill="none" stroke="black" points="106.38,-166 106.38,-210 161.38,-210 161.38,-166 106.38,-166"/>
<text text-anchor="start" x="111" y="-190.5" font-family="Linux libertine" font-size="10.00">LeakyReLU</text>
<text text-anchor="start" x="117.38" y="-178.5" font-family="Linux libertine" font-size="10.00">depth:2</text>
<polygon fill="none" stroke="black" points="161.38,-188 161.38,-210 204.38,-210 204.38,-188 161.38,-188"/>
<text text-anchor="start" x="170.5" y="-195.5" font-family="Linux libertine" font-size="10.00">input:</text>
<polygon fill="none" stroke="black" points="204.38,-188 204.38,-210 262.38,-210 262.38,-188 204.38,-188"/>
<text text-anchor="start" x="209.38" y="-195.5" font-family="Linux libertine" font-size="10.00">(128, 498) </text>
<polygon fill="none" stroke="black" points="161.38,-166 161.38,-188 204.38,-188 204.38,-166 161.38,-166"/>
<text text-anchor="start" x="166" y="-173.5" font-family="Linux libertine" font-size="10.00">output: </text>
<polygon fill="none" stroke="black" points="204.38,-166 204.38,-188 262.38,-188 262.38,-166 204.38,-166"/>
<text text-anchor="start" x="209.38" y="-173.5" font-family="Linux libertine" font-size="10.00">(128, 498) </text>
</g>
<!-- 17&#45;&gt;18 -->
<g id="edge21" class="edge">
<title>17&#45;&gt;18</title>
<path fill="none" stroke="black" d="M184.38,-246.1C184.38,-238.49 184.38,-229.7 184.38,-221.34"/>
<polygon fill="black" stroke="black" points="187.88,-221.47 184.38,-211.47 180.88,-221.47 187.88,-221.47"/>
</g>
<!-- 19 -->
<g id="node20" class="node">
<title>19</title>
<polygon fill="#c1ffc1" stroke="none" points="256.38,-130 112.38,-130 112.38,-86 256.38,-86 256.38,-130"/>
<polygon fill="none" stroke="black" points="112.38,-86 112.38,-130 155.38,-130 155.38,-86 112.38,-86"/>
<text text-anchor="start" x="120.75" y="-110.5" font-family="Linux libertine" font-size="10.00">Linear</text>
<text text-anchor="start" x="117.38" y="-98.5" font-family="Linux libertine" font-size="10.00">depth:2</text>
<polygon fill="none" stroke="black" points="155.38,-108 155.38,-130 198.38,-130 198.38,-108 155.38,-108"/>
<text text-anchor="start" x="164.5" y="-115.5" font-family="Linux libertine" font-size="10.00">input:</text>
<polygon fill="none" stroke="black" points="198.38,-108 198.38,-130 256.38,-130 256.38,-108 198.38,-108"/>
<text text-anchor="start" x="203.38" y="-115.5" font-family="Linux libertine" font-size="10.00">(128, 498) </text>
<polygon fill="none" stroke="black" points="155.38,-86 155.38,-108 198.38,-108 198.38,-86 155.38,-86"/>
<text text-anchor="start" x="160" y="-93.5" font-family="Linux libertine" font-size="10.00">output: </text>
<polygon fill="none" stroke="black" points="198.38,-86 198.38,-108 256.38,-108 256.38,-86 198.38,-86"/>
<text text-anchor="start" x="203.38" y="-93.5" font-family="Linux libertine" font-size="10.00">(128, 496) </text>
</g>
<!-- 18&#45;&gt;19 -->
<g id="edge22" class="edge">
<title>18&#45;&gt;19</title>
<path fill="none" stroke="black" d="M184.38,-166.1C184.38,-158.49 184.38,-149.7 184.38,-141.34"/>
<polygon fill="black" stroke="black" points="187.88,-141.47 184.38,-131.47 180.88,-141.47 187.88,-141.47"/>
</g>
<!-- 20 -->
<g id="node21" class="node">
<title>20</title>
<polygon fill="lightyellow" stroke="none" points="245.75,-50 123,-50 123,-16 245.75,-16 245.75,-50"/>
<polygon fill="none" stroke="black" points="123,-16 123,-50 190.75,-50 190.75,-16 123,-16"/>
<text text-anchor="start" x="128" y="-35.5" font-family="Linux libertine" font-size="10.00">output&#45;tensor</text>
<text text-anchor="start" x="140.38" y="-23.5" font-family="Linux libertine" font-size="10.00">depth:0</text>
<polygon fill="none" stroke="black" points="190.75,-16 190.75,-50 245.75,-50 245.75,-16 190.75,-16"/>
<text text-anchor="start" x="195.75" y="-29.5" font-family="Linux libertine" font-size="10.00">(128, 496)</text>
</g>
<!-- 19&#45;&gt;20 -->
<g id="edge23" class="edge">
<title>19&#45;&gt;20</title>
<path fill="none" stroke="black" d="M184.38,-86.28C184.38,-78.46 184.38,-69.45 184.38,-61.13"/>
<polygon fill="black" stroke="black" points="187.88,-61.18 184.38,-51.18 180.88,-61.18 187.88,-61.18"/>
</g>
</g>
</svg>
