<?xml version="1.0" encoding="UTF-8" standalone="no"?>
<!DOCTYPE svg PUBLIC "-//W3C//DTD SVG 1.1//EN"
 "http://www.w3.org/Graphics/SVG/1.1/DTD/svg11.dtd">
<!-- Generated by graphviz version 10.0.1 (20240210.2158)
 -->
<!-- Title: model Pages: 1 -->
<svg width="384pt" height="1620pt"
 viewBox="0.00 0.00 383.55 1620.00" xmlns="http://www.w3.org/2000/svg" xmlns:xlink="http://www.w3.org/1999/xlink">
<g id="graph0" class="graph" transform="scale(0.815197 0.815197) rotate(0) translate(4 1983.25)">
<title>model</title>
<polygon fill="white" stroke="none" points="-4,4 -4,-1983.25 466.5,-1983.25 466.5,4 -4,4"/>
<g id="clust1" class="cluster">
<title>cluster_2</title>
<polygon fill="none" stroke="black" stroke-dasharray="5,2" points="80.38,-1535 80.38,-1857.25 252.38,-1857.25 252.38,-1535 80.38,-1535"/>
<text text-anchor="middle" x="111.62" y="-1841.85" font-family="Times New Roman,serif" font-size="12.00">Sequential</text>
</g>
<g id="clust2" class="cluster">
<title>cluster_3</title>
<polygon fill="none" stroke="black" stroke-dasharray="5,2" points="60.38,-392.25 60.38,-1527 292.38,-1527 292.38,-392.25 60.38,-392.25"/>
<text text-anchor="middle" x="119" y="-1511.6" font-family="Times New Roman,serif" font-size="12.00">Lin_Conv_Res_Block</text>
</g>
<g id="clust3" class="cluster">
<title>cluster_4</title>
<polygon fill="none" stroke="black" stroke-dasharray="5,2" points="68.38,-882.5 68.38,-1364.75 256.38,-1364.75 256.38,-882.5 68.38,-882.5"/>
<text text-anchor="middle" x="99.62" y="-1349.35" font-family="Times New Roman,serif" font-size="12.00">Sequential</text>
</g>
<g id="clust4" class="cluster">
<title>cluster_5</title>
<polygon fill="none" stroke="black" stroke-dasharray="5,2" points="99.38,-400.25 99.38,-722.5 271.38,-722.5 271.38,-400.25 99.38,-400.25"/>
<text text-anchor="middle" x="130.62" y="-707.1" font-family="Times New Roman,serif" font-size="12.00">Sequential</text>
</g>
<g id="clust5" class="cluster">
<title>cluster_6</title>
<polygon fill="none" stroke="black" stroke-dasharray="5,2" points="114.38,-8 114.38,-320.25 286.38,-320.25 286.38,-8 114.38,-8"/>
<text text-anchor="middle" x="145.62" y="-304.85" font-family="Times New Roman,serif" font-size="12.00">Sequential</text>
</g>
<!-- 0 -->
<g id="node1" class="node">
<title>0</title>
<polygon fill="lightyellow" stroke="none" points="116.75,-1979.25 0,-1979.25 0,-1945.25 116.75,-1945.25 116.75,-1979.25"/>
<polygon fill="none" stroke="black" points="0,-1945.25 0,-1979.25 61.75,-1979.25 61.75,-1945.25 0,-1945.25"/>
<text text-anchor="start" x="5" y="-1964.75" font-family="Linux libertine" font-size="10.00">input&#45;tensor</text>
<text text-anchor="start" x="14.38" y="-1952.75" font-family="Linux libertine" font-size="10.00">depth:0</text>
<polygon fill="none" stroke="black" points="61.75,-1945.25 61.75,-1979.25 116.75,-1979.25 116.75,-1945.25 61.75,-1945.25"/>
<text text-anchor="start" x="66.75" y="-1958.75" font-family="Linux libertine" font-size="10.00">(128, 496)</text>
</g>
<!-- 3 -->
<g id="node4" class="node">
<title>3</title>
<polygon fill="aliceblue" stroke="none" points="286.38,-1909.25 86.38,-1909.25 86.38,-1865.25 286.38,-1865.25 286.38,-1909.25"/>
<polygon fill="none" stroke="black" points="86.38,-1865.25 86.38,-1909.25 129.38,-1909.25 129.38,-1865.25 86.38,-1865.25"/>
<text text-anchor="start" x="101.5" y="-1889.75" font-family="Linux libertine" font-size="10.00">cat</text>
<text text-anchor="start" x="91.38" y="-1877.75" font-family="Linux libertine" font-size="10.00">depth:1</text>
<polygon fill="none" stroke="black" points="129.38,-1887.25 129.38,-1909.25 172.38,-1909.25 172.38,-1887.25 129.38,-1887.25"/>
<text text-anchor="start" x="138.5" y="-1894.75" font-family="Linux libertine" font-size="10.00">input:</text>
<polygon fill="none" stroke="black" points="172.38,-1887.25 172.38,-1909.25 286.38,-1909.25 286.38,-1887.25 172.38,-1887.25"/>
<text text-anchor="start" x="177.25" y="-1894.75" font-family="Linux libertine" font-size="10.00">(128, 496), 2 x (128, 1) </text>
<polygon fill="none" stroke="black" points="129.38,-1865.25 129.38,-1887.25 172.38,-1887.25 172.38,-1865.25 129.38,-1865.25"/>
<text text-anchor="start" x="134" y="-1872.75" font-family="Linux libertine" font-size="10.00">output: </text>
<polygon fill="none" stroke="black" points="172.38,-1865.25 172.38,-1887.25 286.38,-1887.25 286.38,-1865.25 172.38,-1865.25"/>
<text text-anchor="start" x="205.38" y="-1872.75" font-family="Linux libertine" font-size="10.00">(128, 498) </text>
</g>
<!-- 0&#45;&gt;3 -->
<g id="edge1" class="edge">
<title>0&#45;&gt;3</title>
<path fill="none" stroke="black" d="M86.15,-1945.41C101.91,-1936.42 122.03,-1924.94 140.11,-1914.64"/>
<polygon fill="black" stroke="black" points="141.63,-1917.8 148.59,-1909.8 138.17,-1911.71 141.63,-1917.8"/>
</g>
<!-- 8 -->
<g id="node9" class="node">
<title>8</title>
<polygon fill="aliceblue" stroke="none" points="241.88,-1496.75 82.88,-1496.75 82.88,-1452.75 241.88,-1452.75 241.88,-1496.75"/>
<polygon fill="none" stroke="black" points="82.88,-1452.75 82.88,-1496.75 125.88,-1496.75 125.88,-1452.75 82.88,-1452.75"/>
<text text-anchor="start" x="98" y="-1477.25" font-family="Linux libertine" font-size="10.00">cat</text>
<text text-anchor="start" x="87.88" y="-1465.25" font-family="Linux libertine" font-size="10.00">depth:2</text>
<polygon fill="none" stroke="black" points="125.88,-1474.75 125.88,-1496.75 168.88,-1496.75 168.88,-1474.75 125.88,-1474.75"/>
<text text-anchor="start" x="135" y="-1482.25" font-family="Linux libertine" font-size="10.00">input:</text>
<polygon fill="none" stroke="black" points="168.88,-1474.75 168.88,-1496.75 241.88,-1496.75 241.88,-1474.75 168.88,-1474.75"/>
<text text-anchor="start" x="173.5" y="-1482.25" font-family="Linux libertine" font-size="10.00">2 x (128, 496) </text>
<polygon fill="none" stroke="black" points="125.88,-1452.75 125.88,-1474.75 168.88,-1474.75 168.88,-1452.75 125.88,-1452.75"/>
<text text-anchor="start" x="130.5" y="-1460.25" font-family="Linux libertine" font-size="10.00">output: </text>
<polygon fill="none" stroke="black" points="168.88,-1452.75 168.88,-1474.75 241.88,-1474.75 241.88,-1452.75 168.88,-1452.75"/>
<text text-anchor="start" x="181.38" y="-1460.25" font-family="Linux libertine" font-size="10.00">(128, 992) </text>
</g>
<!-- 0&#45;&gt;8 -->
<g id="edge10" class="edge">
<title>0&#45;&gt;8</title>
<path fill="none" stroke="black" d="M51.93,-1945.69C41.09,-1918.07 20.38,-1858.45 20.38,-1806 20.38,-1806 20.38,-1806 20.38,-1644 20.38,-1589.54 40.42,-1575.91 76.38,-1535 87.07,-1522.84 100.77,-1511.95 114.07,-1502.92"/>
<polygon fill="black" stroke="black" points="115.91,-1505.91 122.38,-1497.52 112.09,-1500.04 115.91,-1505.91"/>
</g>
<!-- 17 -->
<g id="node18" class="node">
<title>17</title>
<polygon fill="aliceblue" stroke="none" points="284.38,-774.5 68.38,-774.5 68.38,-730.5 284.38,-730.5 284.38,-774.5"/>
<polygon fill="none" stroke="black" points="68.38,-730.5 68.38,-774.5 111.38,-774.5 111.38,-730.5 68.38,-730.5"/>
<text text-anchor="start" x="83.5" y="-755" font-family="Linux libertine" font-size="10.00">cat</text>
<text text-anchor="start" x="73.38" y="-743" font-family="Linux libertine" font-size="10.00">depth:2</text>
<polygon fill="none" stroke="black" points="111.38,-752.5 111.38,-774.5 154.38,-774.5 154.38,-752.5 111.38,-752.5"/>
<text text-anchor="start" x="120.5" y="-760" font-family="Linux libertine" font-size="10.00">input:</text>
<polygon fill="none" stroke="black" points="154.38,-752.5 154.38,-774.5 284.38,-774.5 284.38,-752.5 154.38,-752.5"/>
<text text-anchor="start" x="159.38" y="-760" font-family="Linux libertine" font-size="10.00">2 x (128, 496), 2 x (128, 1) </text>
<polygon fill="none" stroke="black" points="111.38,-730.5 111.38,-752.5 154.38,-752.5 154.38,-730.5 111.38,-730.5"/>
<text text-anchor="start" x="116" y="-738" font-family="Linux libertine" font-size="10.00">output: </text>
<polygon fill="none" stroke="black" points="154.38,-730.5 154.38,-752.5 284.38,-752.5 284.38,-730.5 154.38,-730.5"/>
<text text-anchor="start" x="195.38" y="-738" font-family="Linux libertine" font-size="10.00">(128, 994) </text>
</g>
<!-- 0&#45;&gt;17 -->
<g id="edge11" class="edge">
<title>0&#45;&gt;17</title>
<path fill="none" stroke="black" d="M56.2,-1945.43C54.21,-1923.68 54.44,-1884.96 77.38,-1865.25 92.47,-1852.27 242.39,-1871.42 256.38,-1857.25 305.1,-1807.91 276.38,-1302.84 276.38,-1233.5 276.38,-1233.5 276.38,-1233.5 276.38,-911.5 276.38,-865.15 275.9,-849.19 250.38,-810.5 243.05,-799.4 232.83,-789.57 222.32,-781.32"/>
<polygon fill="black" stroke="black" points="224.41,-778.52 214.29,-775.4 220.26,-784.15 224.41,-778.52"/>
</g>
<!-- 1 -->
<g id="node2" class="node">
<title>1</title>
<polygon fill="lightyellow" stroke="none" points="338.5,-1979.25 232.25,-1979.25 232.25,-1945.25 338.5,-1945.25 338.5,-1979.25"/>
<polygon fill="none" stroke="black" points="232.25,-1945.25 232.25,-1979.25 294,-1979.25 294,-1945.25 232.25,-1945.25"/>
<text text-anchor="start" x="237.25" y="-1964.75" font-family="Linux libertine" font-size="10.00">input&#45;tensor</text>
<text text-anchor="start" x="246.62" y="-1952.75" font-family="Linux libertine" font-size="10.00">depth:0</text>
<polygon fill="none" stroke="black" points="294,-1945.25 294,-1979.25 338.5,-1979.25 338.5,-1945.25 294,-1945.25"/>
<text text-anchor="start" x="299" y="-1958.75" font-family="Linux libertine" font-size="10.00">(128, 1)</text>
</g>
<!-- 1&#45;&gt;3 -->
<g id="edge2" class="edge">
<title>1&#45;&gt;3</title>
<path fill="none" stroke="black" d="M263.89,-1945.41C252.16,-1936.76 237.29,-1925.79 223.72,-1915.79"/>
<polygon fill="black" stroke="black" points="225.93,-1913.07 215.8,-1909.95 221.77,-1918.7 225.93,-1913.07"/>
</g>
<!-- 1&#45;&gt;17 -->
<g id="edge13" class="edge">
<title>1&#45;&gt;17</title>
<path fill="none" stroke="black" d="M290.29,-1945.56C298.57,-1917.75 314.38,-1857.82 314.38,-1806 314.38,-1806 314.38,-1806 314.38,-911.5 314.38,-865.36 319.03,-846.66 290.38,-810.5 280.27,-797.75 266.56,-787.62 252.16,-779.66"/>
<polygon fill="black" stroke="black" points="253.95,-776.65 243.46,-775.18 250.75,-782.87 253.95,-776.65"/>
</g>
<!-- 22 -->
<g id="node23" class="node">
<title>22</title>
<polygon fill="aliceblue" stroke="none" points="308.38,-372.25 92.38,-372.25 92.38,-328.25 308.38,-328.25 308.38,-372.25"/>
<polygon fill="none" stroke="black" points="92.38,-328.25 92.38,-372.25 135.38,-372.25 135.38,-328.25 92.38,-328.25"/>
<text text-anchor="start" x="107.5" y="-352.75" font-family="Linux libertine" font-size="10.00">cat</text>
<text text-anchor="start" x="97.38" y="-340.75" font-family="Linux libertine" font-size="10.00">depth:1</text>
<polygon fill="none" stroke="black" points="135.38,-350.25 135.38,-372.25 178.38,-372.25 178.38,-350.25 135.38,-350.25"/>
<text text-anchor="start" x="144.5" y="-357.75" font-family="Linux libertine" font-size="10.00">input:</text>
<polygon fill="none" stroke="black" points="178.38,-350.25 178.38,-372.25 308.38,-372.25 308.38,-350.25 178.38,-350.25"/>
<text text-anchor="start" x="183.38" y="-357.75" font-family="Linux libertine" font-size="10.00">2 x (128, 496), 2 x (128, 1) </text>
<polygon fill="none" stroke="black" points="135.38,-328.25 135.38,-350.25 178.38,-350.25 178.38,-328.25 135.38,-328.25"/>
<text text-anchor="start" x="140" y="-335.75" font-family="Linux libertine" font-size="10.00">output: </text>
<polygon fill="none" stroke="black" points="178.38,-328.25 178.38,-350.25 308.38,-350.25 308.38,-328.25 178.38,-328.25"/>
<text text-anchor="start" x="219.38" y="-335.75" font-family="Linux libertine" font-size="10.00">(128, 994) </text>
</g>
<!-- 1&#45;&gt;22 -->
<g id="edge3" class="edge">
<title>1&#45;&gt;22</title>
<path fill="none" stroke="black" d="M297.35,-1945.46C316.62,-1918.43 352.38,-1860.9 352.38,-1806 352.38,-1806 352.38,-1806 352.38,-991.5 352.38,-884.38 390.38,-860.62 390.38,-753.5 390.38,-753.5 390.38,-753.5 390.38,-509.25 390.38,-444.66 324.67,-401.4 270.53,-376.71"/>
<polygon fill="black" stroke="black" points="272.18,-373.61 261.62,-372.78 269.35,-380.02 272.18,-373.61"/>
</g>
<!-- 2 -->
<g id="node3" class="node">
<title>2</title>
<polygon fill="lightyellow" stroke="none" points="462.5,-1979.25 356.25,-1979.25 356.25,-1945.25 462.5,-1945.25 462.5,-1979.25"/>
<polygon fill="none" stroke="black" points="356.25,-1945.25 356.25,-1979.25 418,-1979.25 418,-1945.25 356.25,-1945.25"/>
<text text-anchor="start" x="361.25" y="-1964.75" font-family="Linux libertine" font-size="10.00">input&#45;tensor</text>
<text text-anchor="start" x="370.62" y="-1952.75" font-family="Linux libertine" font-size="10.00">depth:0</text>
<polygon fill="none" stroke="black" points="418,-1945.25 418,-1979.25 462.5,-1979.25 462.5,-1945.25 418,-1945.25"/>
<text text-anchor="start" x="423" y="-1958.75" font-family="Linux libertine" font-size="10.00">(128, 1)</text>
</g>
<!-- 2&#45;&gt;3 -->
<g id="edge4" class="edge">
<title>2&#45;&gt;3</title>
<path fill="none" stroke="black" d="M360.71,-1945.32C331.58,-1935.78 293.96,-1923.47 261.12,-1912.72"/>
<polygon fill="black" stroke="black" points="262.22,-1909.39 251.62,-1909.61 260.04,-1916.05 262.22,-1909.39"/>
</g>
<!-- 2&#45;&gt;17 -->
<g id="edge14" class="edge">
<title>2&#45;&gt;17</title>
<path fill="none" stroke="black" d="M406.15,-1945.46C400.73,-1917.48 390.38,-1857.32 390.38,-1806 390.38,-1806 390.38,-1806 390.38,-991.5 390.38,-904.42 377.06,-871.96 315.38,-810.5 302.01,-797.19 285.11,-786.85 267.73,-778.87"/>
<polygon fill="black" stroke="black" points="269.43,-775.78 258.86,-775.03 266.65,-782.21 269.43,-775.78"/>
</g>
<!-- 2&#45;&gt;22 -->
<g id="edge5" class="edge">
<title>2&#45;&gt;22</title>
<path fill="none" stroke="black" d="M412.6,-1945.46C418.02,-1917.48 428.38,-1857.32 428.38,-1806 428.38,-1806 428.38,-1806 428.38,-509.25 428.38,-447.24 402.51,-428.74 352.38,-392.25 342.2,-384.85 330.78,-378.78 318.88,-373.81"/>
<polygon fill="black" stroke="black" points="320.32,-370.62 309.73,-370.27 317.79,-377.14 320.32,-370.62"/>
</g>
<!-- 4 -->
<g id="node5" class="node">
<title>4</title>
<polygon fill="#c1ffc1" stroke="none" points="241.38,-1827 97.38,-1827 97.38,-1783 241.38,-1783 241.38,-1827"/>
<polygon fill="none" stroke="black" points="97.38,-1783 97.38,-1827 140.38,-1827 140.38,-1783 97.38,-1783"/>
<text text-anchor="start" x="105.75" y="-1807.5" font-family="Linux libertine" font-size="10.00">Linear</text>
<text text-anchor="start" x="102.38" y="-1795.5" font-family="Linux libertine" font-size="10.00">depth:2</text>
<polygon fill="none" stroke="black" points="140.38,-1805 140.38,-1827 183.38,-1827 183.38,-1805 140.38,-1805"/>
<text text-anchor="start" x="149.5" y="-1812.5" font-family="Linux libertine" font-size="10.00">input:</text>
<polygon fill="none" stroke="black" points="183.38,-1805 183.38,-1827 241.38,-1827 241.38,-1805 183.38,-1805"/>
<text text-anchor="start" x="188.38" y="-1812.5" font-family="Linux libertine" font-size="10.00">(128, 498) </text>
<polygon fill="none" stroke="black" points="140.38,-1783 140.38,-1805 183.38,-1805 183.38,-1783 140.38,-1783"/>
<text text-anchor="start" x="145" y="-1790.5" font-family="Linux libertine" font-size="10.00">output: </text>
<polygon fill="none" stroke="black" points="183.38,-1783 183.38,-1805 241.38,-1805 241.38,-1783 183.38,-1783"/>
<text text-anchor="start" x="188.38" y="-1790.5" font-family="Linux libertine" font-size="10.00">(128, 498) </text>
</g>
<!-- 3&#45;&gt;4 -->
<g id="edge6" class="edge">
<title>3&#45;&gt;4</title>
<path fill="none" stroke="black" d="M182,-1865.58C180.23,-1857.22 178.14,-1847.38 176.18,-1838.12"/>
<polygon fill="black" stroke="black" points="179.61,-1837.41 174.11,-1828.36 172.76,-1838.86 179.61,-1837.41"/>
</g>
<!-- 5 -->
<g id="node6" class="node">
<title>5</title>
<polygon fill="#c1ffc1" stroke="none" points="244.38,-1747 88.38,-1747 88.38,-1703 244.38,-1703 244.38,-1747"/>
<polygon fill="none" stroke="black" points="88.38,-1703 88.38,-1747 143.38,-1747 143.38,-1703 88.38,-1703"/>
<text text-anchor="start" x="93" y="-1727.5" font-family="Linux libertine" font-size="10.00">LeakyReLU</text>
<text text-anchor="start" x="99.38" y="-1715.5" font-family="Linux libertine" font-size="10.00">depth:2</text>
<polygon fill="none" stroke="black" points="143.38,-1725 143.38,-1747 186.38,-1747 186.38,-1725 143.38,-1725"/>
<text text-anchor="start" x="152.5" y="-1732.5" font-family="Linux libertine" font-size="10.00">input:</text>
<polygon fill="none" stroke="black" points="186.38,-1725 186.38,-1747 244.38,-1747 244.38,-1725 186.38,-1725"/>
<text text-anchor="start" x="191.38" y="-1732.5" font-family="Linux libertine" font-size="10.00">(128, 498) </text>
<polygon fill="none" stroke="black" points="143.38,-1703 143.38,-1725 186.38,-1725 186.38,-1703 143.38,-1703"/>
<text text-anchor="start" x="148" y="-1710.5" font-family="Linux libertine" font-size="10.00">output: </text>
<polygon fill="none" stroke="black" points="186.38,-1703 186.38,-1725 244.38,-1725 244.38,-1703 186.38,-1703"/>
<text text-anchor="start" x="191.38" y="-1710.5" font-family="Linux libertine" font-size="10.00">(128, 498) </text>
</g>
<!-- 4&#45;&gt;5 -->
<g id="edge7" class="edge">
<title>4&#45;&gt;5</title>
<path fill="none" stroke="black" d="M168.57,-1783.1C168.28,-1775.49 167.94,-1766.7 167.62,-1758.34"/>
<polygon fill="black" stroke="black" points="171.12,-1758.33 167.24,-1748.47 164.13,-1758.6 171.12,-1758.33"/>
</g>
<!-- 6 -->
<g id="node7" class="node">
<title>6</title>
<polygon fill="#c1ffc1" stroke="none" points="238.38,-1667 94.38,-1667 94.38,-1623 238.38,-1623 238.38,-1667"/>
<polygon fill="none" stroke="black" points="94.38,-1623 94.38,-1667 137.38,-1667 137.38,-1623 94.38,-1623"/>
<text text-anchor="start" x="102.75" y="-1647.5" font-family="Linux libertine" font-size="10.00">Linear</text>
<text text-anchor="start" x="99.38" y="-1635.5" font-family="Linux libertine" font-size="10.00">depth:2</text>
<polygon fill="none" stroke="black" points="137.38,-1645 137.38,-1667 180.38,-1667 180.38,-1645 137.38,-1645"/>
<text text-anchor="start" x="146.5" y="-1652.5" font-family="Linux libertine" font-size="10.00">input:</text>
<polygon fill="none" stroke="black" points="180.38,-1645 180.38,-1667 238.38,-1667 238.38,-1645 180.38,-1645"/>
<text text-anchor="start" x="185.38" y="-1652.5" font-family="Linux libertine" font-size="10.00">(128, 498) </text>
<polygon fill="none" stroke="black" points="137.38,-1623 137.38,-1645 180.38,-1645 180.38,-1623 137.38,-1623"/>
<text text-anchor="start" x="142" y="-1630.5" font-family="Linux libertine" font-size="10.00">output: </text>
<polygon fill="none" stroke="black" points="180.38,-1623 180.38,-1645 238.38,-1645 238.38,-1623 180.38,-1623"/>
<text text-anchor="start" x="185.38" y="-1630.5" font-family="Linux libertine" font-size="10.00">(128, 496) </text>
</g>
<!-- 5&#45;&gt;6 -->
<g id="edge8" class="edge">
<title>5&#45;&gt;6</title>
<path fill="none" stroke="black" d="M166.38,-1703.1C166.38,-1695.49 166.38,-1686.7 166.38,-1678.34"/>
<polygon fill="black" stroke="black" points="169.88,-1678.47 166.38,-1668.47 162.88,-1678.47 169.88,-1678.47"/>
</g>
<!-- 7 -->
<g id="node8" class="node">
<title>7</title>
<polygon fill="#c1ffc1" stroke="none" points="244.38,-1587 88.38,-1587 88.38,-1543 244.38,-1543 244.38,-1587"/>
<polygon fill="none" stroke="black" points="88.38,-1543 88.38,-1587 143.38,-1587 143.38,-1543 88.38,-1543"/>
<text text-anchor="start" x="93" y="-1567.5" font-family="Linux libertine" font-size="10.00">LeakyReLU</text>
<text text-anchor="start" x="99.38" y="-1555.5" font-family="Linux libertine" font-size="10.00">depth:2</text>
<polygon fill="none" stroke="black" points="143.38,-1565 143.38,-1587 186.38,-1587 186.38,-1565 143.38,-1565"/>
<text text-anchor="start" x="152.5" y="-1572.5" font-family="Linux libertine" font-size="10.00">input:</text>
<polygon fill="none" stroke="black" points="186.38,-1565 186.38,-1587 244.38,-1587 244.38,-1565 186.38,-1565"/>
<text text-anchor="start" x="191.38" y="-1572.5" font-family="Linux libertine" font-size="10.00">(128, 496) </text>
<polygon fill="none" stroke="black" points="143.38,-1543 143.38,-1565 186.38,-1565 186.38,-1543 143.38,-1543"/>
<text text-anchor="start" x="148" y="-1550.5" font-family="Linux libertine" font-size="10.00">output: </text>
<polygon fill="none" stroke="black" points="186.38,-1543 186.38,-1565 244.38,-1565 244.38,-1543 186.38,-1543"/>
<text text-anchor="start" x="191.38" y="-1550.5" font-family="Linux libertine" font-size="10.00">(128, 496) </text>
</g>
<!-- 6&#45;&gt;7 -->
<g id="edge9" class="edge">
<title>6&#45;&gt;7</title>
<path fill="none" stroke="black" d="M166.38,-1623.1C166.38,-1615.49 166.38,-1606.7 166.38,-1598.34"/>
<polygon fill="black" stroke="black" points="169.88,-1598.47 166.38,-1588.47 162.88,-1598.47 169.88,-1598.47"/>
</g>
<!-- 7&#45;&gt;8 -->
<g id="edge12" class="edge">
<title>7&#45;&gt;8</title>
<path fill="none" stroke="black" d="M165.43,-1543.09C164.95,-1532.54 164.36,-1519.51 163.82,-1507.73"/>
<polygon fill="black" stroke="black" points="167.33,-1507.86 163.38,-1498.03 160.34,-1508.17 167.33,-1507.86"/>
</g>
<!-- 9 -->
<g id="node10" class="node">
<title>9</title>
<polygon fill="aliceblue" stroke="none" points="245.88,-1416.75 78.88,-1416.75 78.88,-1372.75 245.88,-1372.75 245.88,-1416.75"/>
<polygon fill="none" stroke="black" points="78.88,-1372.75 78.88,-1416.75 133.88,-1416.75 133.88,-1372.75 78.88,-1372.75"/>
<text text-anchor="start" x="83.5" y="-1397.25" font-family="Linux libertine" font-size="10.00">unsqueeze</text>
<text text-anchor="start" x="89.88" y="-1385.25" font-family="Linux libertine" font-size="10.00">depth:2</text>
<polygon fill="none" stroke="black" points="133.88,-1394.75 133.88,-1416.75 176.88,-1416.75 176.88,-1394.75 133.88,-1394.75"/>
<text text-anchor="start" x="143" y="-1402.25" font-family="Linux libertine" font-size="10.00">input:</text>
<polygon fill="none" stroke="black" points="176.88,-1394.75 176.88,-1416.75 245.88,-1416.75 245.88,-1394.75 176.88,-1394.75"/>
<text text-anchor="start" x="187.38" y="-1402.25" font-family="Linux libertine" font-size="10.00">(128, 992) </text>
<polygon fill="none" stroke="black" points="133.88,-1372.75 133.88,-1394.75 176.88,-1394.75 176.88,-1372.75 133.88,-1372.75"/>
<text text-anchor="start" x="138.5" y="-1380.25" font-family="Linux libertine" font-size="10.00">output: </text>
<polygon fill="none" stroke="black" points="176.88,-1372.75 176.88,-1394.75 245.88,-1394.75 245.88,-1372.75 176.88,-1372.75"/>
<text text-anchor="start" x="181.75" y="-1380.25" font-family="Linux libertine" font-size="10.00">(128, 1, 992) </text>
</g>
<!-- 8&#45;&gt;9 -->
<g id="edge15" class="edge">
<title>8&#45;&gt;9</title>
<path fill="none" stroke="black" d="M162.38,-1452.85C162.38,-1445.24 162.38,-1436.45 162.38,-1428.09"/>
<polygon fill="black" stroke="black" points="165.88,-1428.22 162.38,-1418.22 158.88,-1428.22 165.88,-1428.22"/>
</g>
<!-- 10 -->
<g id="node11" class="node">
<title>10</title>
<polygon fill="#c1ffc1" stroke="none" points="242.38,-1334.5 82.38,-1334.5 82.38,-1290.5 242.38,-1290.5 242.38,-1334.5"/>
<polygon fill="none" stroke="black" points="82.38,-1290.5 82.38,-1334.5 125.38,-1334.5 125.38,-1290.5 82.38,-1290.5"/>
<text text-anchor="start" x="88.12" y="-1315" font-family="Linux libertine" font-size="10.00">Conv1d</text>
<text text-anchor="start" x="87.38" y="-1303" font-family="Linux libertine" font-size="10.00">depth:3</text>
<polygon fill="none" stroke="black" points="125.38,-1312.5 125.38,-1334.5 168.38,-1334.5 168.38,-1312.5 125.38,-1312.5"/>
<text text-anchor="start" x="134.5" y="-1320" font-family="Linux libertine" font-size="10.00">input:</text>
<polygon fill="none" stroke="black" points="168.38,-1312.5 168.38,-1334.5 242.38,-1334.5 242.38,-1312.5 168.38,-1312.5"/>
<text text-anchor="start" x="175.75" y="-1320" font-family="Linux libertine" font-size="10.00">(128, 1, 992) </text>
<polygon fill="none" stroke="black" points="125.38,-1290.5 125.38,-1312.5 168.38,-1312.5 168.38,-1290.5 125.38,-1290.5"/>
<text text-anchor="start" x="130" y="-1298" font-family="Linux libertine" font-size="10.00">output: </text>
<polygon fill="none" stroke="black" points="168.38,-1290.5 168.38,-1312.5 242.38,-1312.5 242.38,-1290.5 168.38,-1290.5"/>
<text text-anchor="start" x="173.12" y="-1298" font-family="Linux libertine" font-size="10.00">(128, 50, 992) </text>
</g>
<!-- 9&#45;&gt;10 -->
<g id="edge16" class="edge">
<title>9&#45;&gt;10</title>
<path fill="none" stroke="black" d="M162.38,-1373.08C162.38,-1364.72 162.38,-1354.88 162.38,-1345.62"/>
<polygon fill="black" stroke="black" points="165.88,-1345.89 162.38,-1335.89 158.88,-1345.89 165.88,-1345.89"/>
</g>
<!-- 11 -->
<g id="node12" class="node">
<title>11</title>
<polygon fill="#c1ffc1" stroke="none" points="248.38,-1254.5 76.38,-1254.5 76.38,-1210.5 248.38,-1210.5 248.38,-1254.5"/>
<polygon fill="none" stroke="black" points="76.38,-1210.5 76.38,-1254.5 131.38,-1254.5 131.38,-1210.5 76.38,-1210.5"/>
<text text-anchor="start" x="81" y="-1235" font-family="Linux libertine" font-size="10.00">LeakyReLU</text>
<text text-anchor="start" x="87.38" y="-1223" font-family="Linux libertine" font-size="10.00">depth:3</text>
<polygon fill="none" stroke="black" points="131.38,-1232.5 131.38,-1254.5 174.38,-1254.5 174.38,-1232.5 131.38,-1232.5"/>
<text text-anchor="start" x="140.5" y="-1240" font-family="Linux libertine" font-size="10.00">input:</text>
<polygon fill="none" stroke="black" points="174.38,-1232.5 174.38,-1254.5 248.38,-1254.5 248.38,-1232.5 174.38,-1232.5"/>
<text text-anchor="start" x="179.12" y="-1240" font-family="Linux libertine" font-size="10.00">(128, 50, 992) </text>
<polygon fill="none" stroke="black" points="131.38,-1210.5 131.38,-1232.5 174.38,-1232.5 174.38,-1210.5 131.38,-1210.5"/>
<text text-anchor="start" x="136" y="-1218" font-family="Linux libertine" font-size="10.00">output: </text>
<polygon fill="none" stroke="black" points="174.38,-1210.5 174.38,-1232.5 248.38,-1232.5 248.38,-1210.5 174.38,-1210.5"/>
<text text-anchor="start" x="179.12" y="-1218" font-family="Linux libertine" font-size="10.00">(128, 50, 992) </text>
</g>
<!-- 10&#45;&gt;11 -->
<g id="edge17" class="edge">
<title>10&#45;&gt;11</title>
<path fill="none" stroke="black" d="M162.38,-1290.6C162.38,-1282.99 162.38,-1274.2 162.38,-1265.84"/>
<polygon fill="black" stroke="black" points="165.88,-1265.97 162.38,-1255.97 158.88,-1265.97 165.88,-1265.97"/>
</g>
<!-- 12 -->
<g id="node13" class="node">
<title>12</title>
<polygon fill="#c1ffc1" stroke="none" points="242.38,-1174.5 82.38,-1174.5 82.38,-1130.5 242.38,-1130.5 242.38,-1174.5"/>
<polygon fill="none" stroke="black" points="82.38,-1130.5 82.38,-1174.5 125.38,-1174.5 125.38,-1130.5 82.38,-1130.5"/>
<text text-anchor="start" x="88.12" y="-1155" font-family="Linux libertine" font-size="10.00">Conv1d</text>
<text text-anchor="start" x="87.38" y="-1143" font-family="Linux libertine" font-size="10.00">depth:3</text>
<polygon fill="none" stroke="black" points="125.38,-1152.5 125.38,-1174.5 168.38,-1174.5 168.38,-1152.5 125.38,-1152.5"/>
<text text-anchor="start" x="134.5" y="-1160" font-family="Linux libertine" font-size="10.00">input:</text>
<polygon fill="none" stroke="black" points="168.38,-1152.5 168.38,-1174.5 242.38,-1174.5 242.38,-1152.5 168.38,-1152.5"/>
<text text-anchor="start" x="173.12" y="-1160" font-family="Linux libertine" font-size="10.00">(128, 50, 992) </text>
<polygon fill="none" stroke="black" points="125.38,-1130.5 125.38,-1152.5 168.38,-1152.5 168.38,-1130.5 125.38,-1130.5"/>
<text text-anchor="start" x="130" y="-1138" font-family="Linux libertine" font-size="10.00">output: </text>
<polygon fill="none" stroke="black" points="168.38,-1130.5 168.38,-1152.5 242.38,-1152.5 242.38,-1130.5 168.38,-1130.5"/>
<text text-anchor="start" x="173.12" y="-1138" font-family="Linux libertine" font-size="10.00">(128, 25, 992) </text>
</g>
<!-- 11&#45;&gt;12 -->
<g id="edge18" class="edge">
<title>11&#45;&gt;12</title>
<path fill="none" stroke="black" d="M162.38,-1210.6C162.38,-1202.99 162.38,-1194.2 162.38,-1185.84"/>
<polygon fill="black" stroke="black" points="165.88,-1185.97 162.38,-1175.97 158.88,-1185.97 165.88,-1185.97"/>
</g>
<!-- 13 -->
<g id="node14" class="node">
<title>13</title>
<polygon fill="#c1ffc1" stroke="none" points="248.38,-1094.5 76.38,-1094.5 76.38,-1050.5 248.38,-1050.5 248.38,-1094.5"/>
<polygon fill="none" stroke="black" points="76.38,-1050.5 76.38,-1094.5 131.38,-1094.5 131.38,-1050.5 76.38,-1050.5"/>
<text text-anchor="start" x="81" y="-1075" font-family="Linux libertine" font-size="10.00">LeakyReLU</text>
<text text-anchor="start" x="87.38" y="-1063" font-family="Linux libertine" font-size="10.00">depth:3</text>
<polygon fill="none" stroke="black" points="131.38,-1072.5 131.38,-1094.5 174.38,-1094.5 174.38,-1072.5 131.38,-1072.5"/>
<text text-anchor="start" x="140.5" y="-1080" font-family="Linux libertine" font-size="10.00">input:</text>
<polygon fill="none" stroke="black" points="174.38,-1072.5 174.38,-1094.5 248.38,-1094.5 248.38,-1072.5 174.38,-1072.5"/>
<text text-anchor="start" x="179.12" y="-1080" font-family="Linux libertine" font-size="10.00">(128, 25, 992) </text>
<polygon fill="none" stroke="black" points="131.38,-1050.5 131.38,-1072.5 174.38,-1072.5 174.38,-1050.5 131.38,-1050.5"/>
<text text-anchor="start" x="136" y="-1058" font-family="Linux libertine" font-size="10.00">output: </text>
<polygon fill="none" stroke="black" points="174.38,-1050.5 174.38,-1072.5 248.38,-1072.5 248.38,-1050.5 174.38,-1050.5"/>
<text text-anchor="start" x="179.12" y="-1058" font-family="Linux libertine" font-size="10.00">(128, 25, 992) </text>
</g>
<!-- 12&#45;&gt;13 -->
<g id="edge19" class="edge">
<title>12&#45;&gt;13</title>
<path fill="none" stroke="black" d="M162.38,-1130.6C162.38,-1122.99 162.38,-1114.2 162.38,-1105.84"/>
<polygon fill="black" stroke="black" points="165.88,-1105.97 162.38,-1095.97 158.88,-1105.97 165.88,-1105.97"/>
</g>
<!-- 14 -->
<g id="node15" class="node">
<title>14</title>
<polygon fill="#c1ffc1" stroke="none" points="242.38,-1014.5 82.38,-1014.5 82.38,-970.5 242.38,-970.5 242.38,-1014.5"/>
<polygon fill="none" stroke="black" points="82.38,-970.5 82.38,-1014.5 125.38,-1014.5 125.38,-970.5 82.38,-970.5"/>
<text text-anchor="start" x="88.12" y="-995" font-family="Linux libertine" font-size="10.00">Conv1d</text>
<text text-anchor="start" x="87.38" y="-983" font-family="Linux libertine" font-size="10.00">depth:3</text>
<polygon fill="none" stroke="black" points="125.38,-992.5 125.38,-1014.5 168.38,-1014.5 168.38,-992.5 125.38,-992.5"/>
<text text-anchor="start" x="134.5" y="-1000" font-family="Linux libertine" font-size="10.00">input:</text>
<polygon fill="none" stroke="black" points="168.38,-992.5 168.38,-1014.5 242.38,-1014.5 242.38,-992.5 168.38,-992.5"/>
<text text-anchor="start" x="173.12" y="-1000" font-family="Linux libertine" font-size="10.00">(128, 25, 992) </text>
<polygon fill="none" stroke="black" points="125.38,-970.5 125.38,-992.5 168.38,-992.5 168.38,-970.5 125.38,-970.5"/>
<text text-anchor="start" x="130" y="-978" font-family="Linux libertine" font-size="10.00">output: </text>
<polygon fill="none" stroke="black" points="168.38,-970.5 168.38,-992.5 242.38,-992.5 242.38,-970.5 168.38,-970.5"/>
<text text-anchor="start" x="175.75" y="-978" font-family="Linux libertine" font-size="10.00">(128, 1, 992) </text>
</g>
<!-- 13&#45;&gt;14 -->
<g id="edge20" class="edge">
<title>13&#45;&gt;14</title>
<path fill="none" stroke="black" d="M162.38,-1050.6C162.38,-1042.99 162.38,-1034.2 162.38,-1025.84"/>
<polygon fill="black" stroke="black" points="165.88,-1025.97 162.38,-1015.97 158.88,-1025.97 165.88,-1025.97"/>
</g>
<!-- 15 -->
<g id="node16" class="node">
<title>15</title>
<polygon fill="#c1ffc1" stroke="none" points="245.88,-934.5 78.88,-934.5 78.88,-890.5 245.88,-890.5 245.88,-934.5"/>
<polygon fill="none" stroke="black" points="78.88,-890.5 78.88,-934.5 133.88,-934.5 133.88,-890.5 78.88,-890.5"/>
<text text-anchor="start" x="83.5" y="-915" font-family="Linux libertine" font-size="10.00">MaxPool1d</text>
<text text-anchor="start" x="89.88" y="-903" font-family="Linux libertine" font-size="10.00">depth:3</text>
<polygon fill="none" stroke="black" points="133.88,-912.5 133.88,-934.5 176.88,-934.5 176.88,-912.5 133.88,-912.5"/>
<text text-anchor="start" x="143" y="-920" font-family="Linux libertine" font-size="10.00">input:</text>
<polygon fill="none" stroke="black" points="176.88,-912.5 176.88,-934.5 245.88,-934.5 245.88,-912.5 176.88,-912.5"/>
<text text-anchor="start" x="181.75" y="-920" font-family="Linux libertine" font-size="10.00">(128, 1, 992) </text>
<polygon fill="none" stroke="black" points="133.88,-890.5 133.88,-912.5 176.88,-912.5 176.88,-890.5 133.88,-890.5"/>
<text text-anchor="start" x="138.5" y="-898" font-family="Linux libertine" font-size="10.00">output: </text>
<polygon fill="none" stroke="black" points="176.88,-890.5 176.88,-912.5 245.88,-912.5 245.88,-890.5 176.88,-890.5"/>
<text text-anchor="start" x="181.75" y="-898" font-family="Linux libertine" font-size="10.00">(128, 1, 496) </text>
</g>
<!-- 14&#45;&gt;15 -->
<g id="edge21" class="edge">
<title>14&#45;&gt;15</title>
<path fill="none" stroke="black" d="M162.38,-970.6C162.38,-962.99 162.38,-954.2 162.38,-945.84"/>
<polygon fill="black" stroke="black" points="165.88,-945.97 162.38,-935.97 158.88,-945.97 165.88,-945.97"/>
</g>
<!-- 16 -->
<g id="node17" class="node">
<title>16</title>
<polygon fill="aliceblue" stroke="none" points="240.88,-854.5 83.88,-854.5 83.88,-810.5 240.88,-810.5 240.88,-854.5"/>
<polygon fill="none" stroke="black" points="83.88,-810.5 83.88,-854.5 128.88,-854.5 128.88,-810.5 83.88,-810.5"/>
<text text-anchor="start" x="88.75" y="-835" font-family="Linux libertine" font-size="10.00">squeeze</text>
<text text-anchor="start" x="89.88" y="-823" font-family="Linux libertine" font-size="10.00">depth:2</text>
<polygon fill="none" stroke="black" points="128.88,-832.5 128.88,-854.5 171.88,-854.5 171.88,-832.5 128.88,-832.5"/>
<text text-anchor="start" x="138" y="-840" font-family="Linux libertine" font-size="10.00">input:</text>
<polygon fill="none" stroke="black" points="171.88,-832.5 171.88,-854.5 240.88,-854.5 240.88,-832.5 171.88,-832.5"/>
<text text-anchor="start" x="176.75" y="-840" font-family="Linux libertine" font-size="10.00">(128, 1, 496) </text>
<polygon fill="none" stroke="black" points="128.88,-810.5 128.88,-832.5 171.88,-832.5 171.88,-810.5 128.88,-810.5"/>
<text text-anchor="start" x="133.5" y="-818" font-family="Linux libertine" font-size="10.00">output: </text>
<polygon fill="none" stroke="black" points="171.88,-810.5 171.88,-832.5 240.88,-832.5 240.88,-810.5 171.88,-810.5"/>
<text text-anchor="start" x="182.38" y="-818" font-family="Linux libertine" font-size="10.00">(128, 496) </text>
</g>
<!-- 15&#45;&gt;16 -->
<g id="edge22" class="edge">
<title>15&#45;&gt;16</title>
<path fill="none" stroke="black" d="M162.38,-890.6C162.38,-882.99 162.38,-874.2 162.38,-865.84"/>
<polygon fill="black" stroke="black" points="165.88,-865.97 162.38,-855.97 158.88,-865.97 165.88,-865.97"/>
</g>
<!-- 16&#45;&gt;17 -->
<g id="edge23" class="edge">
<title>16&#45;&gt;17</title>
<path fill="none" stroke="black" d="M166.13,-810.6C167.51,-802.9 169.11,-794 170.62,-785.55"/>
<polygon fill="black" stroke="black" points="174.02,-786.41 172.35,-775.95 167.13,-785.17 174.02,-786.41"/>
</g>
<!-- 16&#45;&gt;22 -->
<g id="edge29" class="edge">
<title>16&#45;&gt;22</title>
<path fill="none" stroke="black" d="M104.05,-810.51C87.28,-801.8 70.53,-790.01 59.38,-774.5 32.13,-736.62 40.38,-717.91 40.38,-671.25 40.38,-671.25 40.38,-671.25 40.38,-509.25 40.38,-451.79 53.4,-431.49 95.38,-392.25 101.37,-386.64 108.22,-381.78 115.48,-377.55"/>
<polygon fill="black" stroke="black" points="117.07,-380.67 124.26,-372.89 113.79,-374.49 117.07,-380.67"/>
</g>
<!-- 18 -->
<g id="node19" class="node">
<title>18</title>
<polygon fill="#c1ffc1" stroke="none" points="254.38,-692.25 110.38,-692.25 110.38,-648.25 254.38,-648.25 254.38,-692.25"/>
<polygon fill="none" stroke="black" points="110.38,-648.25 110.38,-692.25 153.38,-692.25 153.38,-648.25 110.38,-648.25"/>
<text text-anchor="start" x="118.75" y="-672.75" font-family="Linux libertine" font-size="10.00">Linear</text>
<text text-anchor="start" x="115.38" y="-660.75" font-family="Linux libertine" font-size="10.00">depth:3</text>
<polygon fill="none" stroke="black" points="153.38,-670.25 153.38,-692.25 196.38,-692.25 196.38,-670.25 153.38,-670.25"/>
<text text-anchor="start" x="162.5" y="-677.75" font-family="Linux libertine" font-size="10.00">input:</text>
<polygon fill="none" stroke="black" points="196.38,-670.25 196.38,-692.25 254.38,-692.25 254.38,-670.25 196.38,-670.25"/>
<text text-anchor="start" x="201.38" y="-677.75" font-family="Linux libertine" font-size="10.00">(128, 994) </text>
<polygon fill="none" stroke="black" points="153.38,-648.25 153.38,-670.25 196.38,-670.25 196.38,-648.25 153.38,-648.25"/>
<text text-anchor="start" x="158" y="-655.75" font-family="Linux libertine" font-size="10.00">output: </text>
<polygon fill="none" stroke="black" points="196.38,-648.25 196.38,-670.25 254.38,-670.25 254.38,-648.25 196.38,-648.25"/>
<text text-anchor="start" x="201.38" y="-655.75" font-family="Linux libertine" font-size="10.00">(128, 498) </text>
</g>
<!-- 17&#45;&gt;18 -->
<g id="edge24" class="edge">
<title>17&#45;&gt;18</title>
<path fill="none" stroke="black" d="M177.92,-730.83C178.55,-722.47 179.28,-712.63 179.97,-703.37"/>
<polygon fill="black" stroke="black" points="183.45,-703.87 180.7,-693.63 176.47,-703.35 183.45,-703.87"/>
</g>
<!-- 19 -->
<g id="node20" class="node">
<title>19</title>
<polygon fill="#c1ffc1" stroke="none" points="263.38,-612.25 107.38,-612.25 107.38,-568.25 263.38,-568.25 263.38,-612.25"/>
<polygon fill="none" stroke="black" points="107.38,-568.25 107.38,-612.25 162.38,-612.25 162.38,-568.25 107.38,-568.25"/>
<text text-anchor="start" x="112" y="-592.75" font-family="Linux libertine" font-size="10.00">LeakyReLU</text>
<text text-anchor="start" x="118.38" y="-580.75" font-family="Linux libertine" font-size="10.00">depth:3</text>
<polygon fill="none" stroke="black" points="162.38,-590.25 162.38,-612.25 205.38,-612.25 205.38,-590.25 162.38,-590.25"/>
<text text-anchor="start" x="171.5" y="-597.75" font-family="Linux libertine" font-size="10.00">input:</text>
<polygon fill="none" stroke="black" points="205.38,-590.25 205.38,-612.25 263.38,-612.25 263.38,-590.25 205.38,-590.25"/>
<text text-anchor="start" x="210.38" y="-597.75" font-family="Linux libertine" font-size="10.00">(128, 498) </text>
<polygon fill="none" stroke="black" points="162.38,-568.25 162.38,-590.25 205.38,-590.25 205.38,-568.25 162.38,-568.25"/>
<text text-anchor="start" x="167" y="-575.75" font-family="Linux libertine" font-size="10.00">output: </text>
<polygon fill="none" stroke="black" points="205.38,-568.25 205.38,-590.25 263.38,-590.25 263.38,-568.25 205.38,-568.25"/>
<text text-anchor="start" x="210.38" y="-575.75" font-family="Linux libertine" font-size="10.00">(128, 498) </text>
</g>
<!-- 18&#45;&gt;19 -->
<g id="edge25" class="edge">
<title>18&#45;&gt;19</title>
<path fill="none" stroke="black" d="M183.18,-648.35C183.47,-640.74 183.81,-631.95 184.13,-623.59"/>
<polygon fill="black" stroke="black" points="187.62,-623.85 184.51,-613.72 180.63,-623.58 187.62,-623.85"/>
</g>
<!-- 20 -->
<g id="node21" class="node">
<title>20</title>
<polygon fill="#c1ffc1" stroke="none" points="257.38,-532.25 113.38,-532.25 113.38,-488.25 257.38,-488.25 257.38,-532.25"/>
<polygon fill="none" stroke="black" points="113.38,-488.25 113.38,-532.25 156.38,-532.25 156.38,-488.25 113.38,-488.25"/>
<text text-anchor="start" x="121.75" y="-512.75" font-family="Linux libertine" font-size="10.00">Linear</text>
<text text-anchor="start" x="118.38" y="-500.75" font-family="Linux libertine" font-size="10.00">depth:3</text>
<polygon fill="none" stroke="black" points="156.38,-510.25 156.38,-532.25 199.38,-532.25 199.38,-510.25 156.38,-510.25"/>
<text text-anchor="start" x="165.5" y="-517.75" font-family="Linux libertine" font-size="10.00">input:</text>
<polygon fill="none" stroke="black" points="199.38,-510.25 199.38,-532.25 257.38,-532.25 257.38,-510.25 199.38,-510.25"/>
<text text-anchor="start" x="204.38" y="-517.75" font-family="Linux libertine" font-size="10.00">(128, 498) </text>
<polygon fill="none" stroke="black" points="156.38,-488.25 156.38,-510.25 199.38,-510.25 199.38,-488.25 156.38,-488.25"/>
<text text-anchor="start" x="161" y="-495.75" font-family="Linux libertine" font-size="10.00">output: </text>
<polygon fill="none" stroke="black" points="199.38,-488.25 199.38,-510.25 257.38,-510.25 257.38,-488.25 199.38,-488.25"/>
<text text-anchor="start" x="204.38" y="-495.75" font-family="Linux libertine" font-size="10.00">(128, 496) </text>
</g>
<!-- 19&#45;&gt;20 -->
<g id="edge26" class="edge">
<title>19&#45;&gt;20</title>
<path fill="none" stroke="black" d="M185.38,-568.35C185.38,-560.74 185.38,-551.95 185.38,-543.59"/>
<polygon fill="black" stroke="black" points="188.88,-543.72 185.38,-533.72 181.88,-543.72 188.88,-543.72"/>
</g>
<!-- 21 -->
<g id="node22" class="node">
<title>21</title>
<polygon fill="#c1ffc1" stroke="none" points="263.38,-452.25 107.38,-452.25 107.38,-408.25 263.38,-408.25 263.38,-452.25"/>
<polygon fill="none" stroke="black" points="107.38,-408.25 107.38,-452.25 162.38,-452.25 162.38,-408.25 107.38,-408.25"/>
<text text-anchor="start" x="112" y="-432.75" font-family="Linux libertine" font-size="10.00">LeakyReLU</text>
<text text-anchor="start" x="118.38" y="-420.75" font-family="Linux libertine" font-size="10.00">depth:3</text>
<polygon fill="none" stroke="black" points="162.38,-430.25 162.38,-452.25 205.38,-452.25 205.38,-430.25 162.38,-430.25"/>
<text text-anchor="start" x="171.5" y="-437.75" font-family="Linux libertine" font-size="10.00">input:</text>
<polygon fill="none" stroke="black" points="205.38,-430.25 205.38,-452.25 263.38,-452.25 263.38,-430.25 205.38,-430.25"/>
<text text-anchor="start" x="210.38" y="-437.75" font-family="Linux libertine" font-size="10.00">(128, 496) </text>
<polygon fill="none" stroke="black" points="162.38,-408.25 162.38,-430.25 205.38,-430.25 205.38,-408.25 162.38,-408.25"/>
<text text-anchor="start" x="167" y="-415.75" font-family="Linux libertine" font-size="10.00">output: </text>
<polygon fill="none" stroke="black" points="205.38,-408.25 205.38,-430.25 263.38,-430.25 263.38,-408.25 205.38,-408.25"/>
<text text-anchor="start" x="210.38" y="-415.75" font-family="Linux libertine" font-size="10.00">(128, 496) </text>
</g>
<!-- 20&#45;&gt;21 -->
<g id="edge27" class="edge">
<title>20&#45;&gt;21</title>
<path fill="none" stroke="black" d="M185.38,-488.35C185.38,-480.74 185.38,-471.95 185.38,-463.59"/>
<polygon fill="black" stroke="black" points="188.88,-463.72 185.38,-453.72 181.88,-463.72 188.88,-463.72"/>
</g>
<!-- 21&#45;&gt;22 -->
<g id="edge28" class="edge">
<title>21&#45;&gt;22</title>
<path fill="none" stroke="black" d="M189.39,-408.35C190.87,-400.65 192.59,-391.75 194.21,-383.3"/>
<polygon fill="black" stroke="black" points="197.61,-384.18 196.06,-373.7 190.73,-382.86 197.61,-384.18"/>
</g>
<!-- 23 -->
<g id="node24" class="node">
<title>23</title>
<polygon fill="#c1ffc1" stroke="none" points="272.38,-290 128.38,-290 128.38,-246 272.38,-246 272.38,-290"/>
<polygon fill="none" stroke="black" points="128.38,-246 128.38,-290 171.38,-290 171.38,-246 128.38,-246"/>
<text text-anchor="start" x="136.75" y="-270.5" font-family="Linux libertine" font-size="10.00">Linear</text>
<text text-anchor="start" x="133.38" y="-258.5" font-family="Linux libertine" font-size="10.00">depth:2</text>
<polygon fill="none" stroke="black" points="171.38,-268 171.38,-290 214.38,-290 214.38,-268 171.38,-268"/>
<text text-anchor="start" x="180.5" y="-275.5" font-family="Linux libertine" font-size="10.00">input:</text>
<polygon fill="none" stroke="black" points="214.38,-268 214.38,-290 272.38,-290 272.38,-268 214.38,-268"/>
<text text-anchor="start" x="219.38" y="-275.5" font-family="Linux libertine" font-size="10.00">(128, 994) </text>
<polygon fill="none" stroke="black" points="171.38,-246 171.38,-268 214.38,-268 214.38,-246 171.38,-246"/>
<text text-anchor="start" x="176" y="-253.5" font-family="Linux libertine" font-size="10.00">output: </text>
<polygon fill="none" stroke="black" points="214.38,-246 214.38,-268 272.38,-268 272.38,-246 214.38,-246"/>
<text text-anchor="start" x="219.38" y="-253.5" font-family="Linux libertine" font-size="10.00">(128, 498) </text>
</g>
<!-- 22&#45;&gt;23 -->
<g id="edge30" class="edge">
<title>22&#45;&gt;23</title>
<path fill="none" stroke="black" d="M200.38,-328.58C200.38,-320.22 200.38,-310.38 200.38,-301.12"/>
<polygon fill="black" stroke="black" points="203.88,-301.39 200.38,-291.39 196.88,-301.39 203.88,-301.39"/>
</g>
<!-- 24 -->
<g id="node25" class="node">
<title>24</title>
<polygon fill="#c1ffc1" stroke="none" points="278.38,-210 122.38,-210 122.38,-166 278.38,-166 278.38,-210"/>
<polygon fill="none" stroke="black" points="122.38,-166 122.38,-210 177.38,-210 177.38,-166 122.38,-166"/>
<text text-anchor="start" x="127" y="-190.5" font-family="Linux libertine" font-size="10.00">LeakyReLU</text>
<text text-anchor="start" x="133.38" y="-178.5" font-family="Linux libertine" font-size="10.00">depth:2</text>
<polygon fill="none" stroke="black" points="177.38,-188 177.38,-210 220.38,-210 220.38,-188 177.38,-188"/>
<text text-anchor="start" x="186.5" y="-195.5" font-family="Linux libertine" font-size="10.00">input:</text>
<polygon fill="none" stroke="black" points="220.38,-188 220.38,-210 278.38,-210 278.38,-188 220.38,-188"/>
<text text-anchor="start" x="225.38" y="-195.5" font-family="Linux libertine" font-size="10.00">(128, 498) </text>
<polygon fill="none" stroke="black" points="177.38,-166 177.38,-188 220.38,-188 220.38,-166 177.38,-166"/>
<text text-anchor="start" x="182" y="-173.5" font-family="Linux libertine" font-size="10.00">output: </text>
<polygon fill="none" stroke="black" points="220.38,-166 220.38,-188 278.38,-188 278.38,-166 220.38,-166"/>
<text text-anchor="start" x="225.38" y="-173.5" font-family="Linux libertine" font-size="10.00">(128, 498) </text>
</g>
<!-- 23&#45;&gt;24 -->
<g id="edge31" class="edge">
<title>23&#45;&gt;24</title>
<path fill="none" stroke="black" d="M200.38,-246.1C200.38,-238.49 200.38,-229.7 200.38,-221.34"/>
<polygon fill="black" stroke="black" points="203.88,-221.47 200.38,-211.47 196.88,-221.47 203.88,-221.47"/>
</g>
<!-- 25 -->
<g id="node26" class="node">
<title>25</title>
<polygon fill="#c1ffc1" stroke="none" points="272.38,-130 128.38,-130 128.38,-86 272.38,-86 272.38,-130"/>
<polygon fill="none" stroke="black" points="128.38,-86 128.38,-130 171.38,-130 171.38,-86 128.38,-86"/>
<text text-anchor="start" x="136.75" y="-110.5" font-family="Linux libertine" font-size="10.00">Linear</text>
<text text-anchor="start" x="133.38" y="-98.5" font-family="Linux libertine" font-size="10.00">depth:2</text>
<polygon fill="none" stroke="black" points="171.38,-108 171.38,-130 214.38,-130 214.38,-108 171.38,-108"/>
<text text-anchor="start" x="180.5" y="-115.5" font-family="Linux libertine" font-size="10.00">input:</text>
<polygon fill="none" stroke="black" points="214.38,-108 214.38,-130 272.38,-130 272.38,-108 214.38,-108"/>
<text text-anchor="start" x="219.38" y="-115.5" font-family="Linux libertine" font-size="10.00">(128, 498) </text>
<polygon fill="none" stroke="black" points="171.38,-86 171.38,-108 214.38,-108 214.38,-86 171.38,-86"/>
<text text-anchor="start" x="176" y="-93.5" font-family="Linux libertine" font-size="10.00">output: </text>
<polygon fill="none" stroke="black" points="214.38,-86 214.38,-108 272.38,-108 272.38,-86 214.38,-86"/>
<text text-anchor="start" x="219.38" y="-93.5" font-family="Linux libertine" font-size="10.00">(128, 496) </text>
</g>
<!-- 24&#45;&gt;25 -->
<g id="edge32" class="edge">
<title>24&#45;&gt;25</title>
<path fill="none" stroke="black" d="M200.38,-166.1C200.38,-158.49 200.38,-149.7 200.38,-141.34"/>
<polygon fill="black" stroke="black" points="203.88,-141.47 200.38,-131.47 196.88,-141.47 203.88,-141.47"/>
</g>
<!-- 26 -->
<g id="node27" class="node">
<title>26</title>
<polygon fill="lightyellow" stroke="none" points="261.75,-50 139,-50 139,-16 261.75,-16 261.75,-50"/>
<polygon fill="none" stroke="black" points="139,-16 139,-50 206.75,-50 206.75,-16 139,-16"/>
<text text-anchor="start" x="144" y="-35.5" font-family="Linux libertine" font-size="10.00">output&#45;tensor</text>
<text text-anchor="start" x="156.38" y="-23.5" font-family="Linux libertine" font-size="10.00">depth:0</text>
<polygon fill="none" stroke="black" points="206.75,-16 206.75,-50 261.75,-50 261.75,-16 206.75,-16"/>
<text text-anchor="start" x="211.75" y="-29.5" font-family="Linux libertine" font-size="10.00">(128, 496)</text>
</g>
<!-- 25&#45;&gt;26 -->
<g id="edge33" class="edge">
<title>25&#45;&gt;26</title>
<path fill="none" stroke="black" d="M200.38,-86.28C200.38,-78.46 200.38,-69.45 200.38,-61.13"/>
<polygon fill="black" stroke="black" points="203.88,-61.18 200.38,-51.18 196.88,-61.18 203.88,-61.18"/>
</g>
</g>
</svg>
